<svg width="46" height="53" viewBox="0 0 46 53" fill="none" xmlns="http://www.w3.org/2000/svg">
<g clip-path="url(#clip0_5102_1971)">
<path d="M45.4996 12.3667H36.4996C35.0111 12.3667 33.7996 11.1777 33.7996 9.7167V5.3C33.7996 4.81244 33.3964 4.4167 32.8997 4.4167C32.4029 4.4167 31.9997 4.81244 31.9997 5.3V9.7167C31.9997 12.152 34.0184 14.1334 36.4998 14.1334H44.5998V48.5834C44.5998 50.0444 43.3883 51.2334 41.8997 51.2334H4.09965C2.61106 51.2334 1.39964 50.0444 1.39964 48.5834V4.4167C1.39964 2.95568 2.61106 1.7667 4.09965 1.7667H32.5271L41.2634 10.3412C41.6153 10.6866 42.1849 10.6866 42.5359 10.3412C42.8878 9.99588 42.8878 9.43669 42.5359 9.09219L33.536 0.258789C33.3676 0.09275 33.1381 0 32.8997 0H4.09965C1.61839 0 -0.400391 1.98129 -0.400391 4.4167V48.5834C-0.400391 51.0187 1.61839 53 4.09965 53H41.8996C44.3809 53 46.3997 51.0187 46.3997 48.5833V13.25C46.3997 12.7624 45.9965 12.3667 45.4996 12.3667Z" fill="#FF4E4E"/>
<path d="M11.5633 39.1253C10.0531 40.6076 10.3789 41.9255 10.5895 42.4237C11.035 43.482 12.25 44.193 13.6108 44.193H13.6117C14.6647 44.193 15.6682 43.7778 16.436 43.0243C16.463 42.9988 16.4872 42.9704 16.5106 42.9413C16.5944 42.8353 18.5365 40.3743 20.6434 37.1184C21.9745 36.8604 23.4389 36.6546 25.0093 36.5036C27.1882 39.2446 29.5381 40.6331 31.9996 40.6331C33.1615 40.6331 34.0758 40.3461 34.7176 39.7807C35.3017 39.2657 35.6239 38.5317 35.6239 37.7146C35.6239 36.1732 34.4593 34.4498 32.8996 34.4498L32.6872 34.4471C32.4415 34.4436 32.0374 34.4383 31.5082 34.4383C29.6029 34.4383 27.6607 34.5134 25.8553 34.6556C25.1803 33.7104 24.5287 32.6239 23.9131 31.4156C25.5654 28.0041 26.1406 25.4558 25.6726 23.6334C25.2892 22.1414 24.121 21.2148 22.6261 21.2148C21.0682 21.2148 19.3996 22.274 19.3996 23.8498C19.3996 24.8427 20.35 28.1401 21.9116 31.4111C21.2572 32.6858 20.4572 34.0717 19.5275 35.5424C15.8571 36.3349 13.1788 37.5398 11.5633 39.1253ZM15.1255 41.8116C14.7025 42.2091 14.168 42.4263 13.6117 42.4263C12.9898 42.4263 12.4174 42.141 12.2518 41.7479C12.0439 41.2549 12.529 40.6764 12.8359 40.3743C13.9419 39.2888 15.706 38.3992 18.0955 37.7191C16.6042 39.9079 15.3514 41.5226 15.1255 41.8116ZM31.5082 36.205C32.0257 36.205 32.4208 36.2103 32.6611 36.2138L32.8995 36.2165C33.2388 36.2165 33.8238 36.9568 33.8238 37.7147C33.8238 38.0327 33.7194 38.2862 33.5151 38.4664C33.2181 38.7279 32.6944 38.8666 31.9996 38.8666C30.3903 38.8666 28.7848 38.0159 27.2142 36.3324C28.6138 36.2483 30.0718 36.205 31.5082 36.205ZM21.1996 23.8498C21.1996 23.4673 21.871 22.9815 22.626 22.9815C23.3038 22.9815 23.742 23.3463 23.9266 24.0663C24.1426 24.902 24.1003 26.4575 22.915 29.2735C21.781 26.6103 21.1996 24.3586 21.1996 23.8498ZM22.9123 33.3448C23.2093 33.873 23.5134 34.3756 23.8231 34.8509C23.1616 34.9268 22.519 35.0125 21.898 35.1079C22.2598 34.5038 22.5982 33.9154 22.9123 33.3448Z" fill="#FF4E4E"/>
</g>
<defs>
<clipPath id="clip0_5102_1971">
<rect width="46" height="53" fill="white"/>
</clipPath>
</defs>
</svg>
