<svg width="29" height="30" viewBox="0 0 29 30" fill="none" xmlns="http://www.w3.org/2000/svg">
<path d="M14.4996 0.937561C12.6529 0.937561 10.8243 1.3013 9.11811 2.00801C7.41197 2.71471 5.86173 3.75055 4.55591 5.05637C1.91868 7.6936 0.437098 11.2705 0.437098 15.0001C0.424804 18.2473 1.54915 21.3964 3.61522 23.9016L0.802723 26.7141C0.607595 26.9119 0.475413 27.163 0.422856 27.4358C0.370298 27.7086 0.399721 27.9908 0.50741 28.2469C0.624211 28.5 0.813557 28.7126 1.05141 28.8578C1.28927 29.003 1.56491 29.0743 1.84335 29.0626H14.4996C18.2292 29.0626 21.8061 27.581 24.4433 24.9438C27.0805 22.3065 28.5621 18.7297 28.5621 15.0001C28.5621 11.2705 27.0805 7.6936 24.4433 5.05637C21.8061 2.41914 18.2292 0.937561 14.4996 0.937561ZM14.4996 26.2501H5.23241L6.54022 24.9422C6.80214 24.6788 6.94915 24.3224 6.94915 23.9508C6.94915 23.5793 6.80214 23.2229 6.54022 22.9594C4.69886 21.1201 3.55219 18.6993 3.29557 16.1093C3.03895 13.5193 3.68827 10.9205 5.13289 8.75564C6.57751 6.59074 8.72806 4.99369 11.2181 4.23659C13.7082 3.47948 16.3838 3.60916 18.789 4.60353C21.1942 5.5979 23.1802 7.39545 24.4087 9.68991C25.6371 11.9844 26.0321 14.6338 25.5262 17.1868C25.0203 19.7398 23.6449 22.0384 21.6343 23.691C19.6237 25.3436 17.1022 26.248 14.4996 26.2501Z" fill="#FFC400"/>
</svg>
