<svg width="29" height="30" viewBox="0 0 29 30" fill="none" xmlns="http://www.w3.org/2000/svg">
<path d="M26.6079 25.1109C27.4891 23.9296 28.0939 22.5655 28.3776 21.1192C28.6612 19.6729 28.6165 18.1814 28.2466 16.7547C27.8768 15.328 27.1913 14.0026 26.2408 12.8762C25.2903 11.7498 24.0989 10.8513 22.7547 10.2469C22.4619 8.56232 21.789 6.96667 20.7871 5.58117C19.7852 4.19566 18.4807 3.05675 16.9727 2.25097C15.4647 1.44519 13.7928 0.993745 12.0842 0.930934C10.3755 0.868123 8.67505 1.1956 7.11193 1.88848C5.54881 2.58136 4.1642 3.62142 3.06328 4.92963C1.96236 6.23783 1.17412 7.77977 0.758435 9.43827C0.342752 11.0968 0.310569 12.8282 0.664332 14.501C1.0181 16.1738 1.7485 17.744 2.80004 19.0922L0.845349 21.0328C0.650221 21.2306 0.518039 21.4817 0.465482 21.7545C0.412924 22.0273 0.442347 22.3095 0.550037 22.5656C0.655534 22.8224 0.834687 23.0423 1.06492 23.1974C1.29515 23.3526 1.56616 23.4361 1.84379 23.4375H9.84535C10.6422 25.1174 11.8985 26.5373 13.4689 27.5328C15.0393 28.5282 16.8595 29.0586 18.7188 29.0625H27.1563C27.4339 29.0611 27.7049 28.9776 27.9352 28.8224C28.1654 28.6673 28.3445 28.4474 28.45 28.1906C28.5577 27.9345 28.5872 27.6523 28.5346 27.3795C28.482 27.1067 28.3499 26.8556 28.1547 26.6578L26.6079 25.1109ZM8.87504 19.2187C8.87697 19.6897 8.91458 20.1598 8.98754 20.625H5.23285L5.72504 20.1469C5.85684 20.0161 5.96146 19.8606 6.03285 19.6892C6.10425 19.5179 6.141 19.3341 6.141 19.1484C6.141 18.9628 6.10425 18.779 6.03285 18.6076C5.96146 18.4363 5.85684 18.2807 5.72504 18.15C4.93692 17.3705 4.31211 16.4417 3.88714 15.418C3.46218 14.3942 3.24559 13.296 3.25004 12.1875C3.25004 9.94973 4.13899 7.80362 5.72132 6.22128C7.30366 4.63894 9.44977 3.74999 11.6875 3.74999C13.4337 3.7395 15.1392 4.27647 16.5643 5.28542C17.9895 6.29438 19.0626 7.72458 19.6329 9.37499C19.3235 9.37499 19.0282 9.37499 18.7188 9.37499C16.1081 9.37499 13.6043 10.4121 11.7582 12.2582C9.91215 14.1042 8.87504 16.608 8.87504 19.2187ZM23.6969 26.25L23.7672 26.3203H18.7188C17.0922 26.3174 15.517 25.7507 14.2614 24.7166C13.0059 23.6826 12.1476 22.2452 11.8329 20.6494C11.5183 19.0536 11.7666 17.398 12.5356 15.9647C13.3046 14.5314 14.5468 13.4091 16.0505 12.7889C17.5542 12.1688 19.2264 12.0891 20.7822 12.5636C22.3381 13.038 23.6813 14.0372 24.5831 15.3909C25.4848 16.7445 25.8894 18.369 25.7278 19.9875C25.5662 21.606 24.8485 23.1185 23.6969 24.2672C23.432 24.5268 23.2803 24.8806 23.275 25.2516C23.2758 25.4376 23.3135 25.6217 23.3859 25.7931C23.4583 25.9644 23.564 26.1198 23.6969 26.25Z" fill="#FFC400"/>
</svg>
