<svg width="30" height="30" viewBox="0 0 30 30" fill="none" xmlns="http://www.w3.org/2000/svg">
<path fill-rule="evenodd" clip-rule="evenodd" d="M10.0604 11.8603C10.4137 12.2388 10.3932 12.8321 10.0147 13.1854L4.65756 18.1854C4.46741 18.3629 4.21209 18.4534 3.95262 18.4353C3.69316 18.4171 3.45287 18.292 3.28922 18.0899L1.77136 16.2149C1.44559 15.8125 1.50772 15.2221 1.91016 14.8964C2.31259 14.5705 2.90292 14.6328 3.2287 15.0351L4.11361 16.1283L8.73536 11.8146C9.11387 11.4614 9.70711 11.4818 10.0604 11.8603ZM14.0625 15C14.0625 14.4822 14.4823 14.0625 15 14.0625H27.5C28.0178 14.0625 28.4375 14.4822 28.4375 15C28.4375 15.5178 28.0178 15.9375 27.5 15.9375H15C14.4823 15.9375 14.0625 15.5178 14.0625 15Z" fill="white"/>
<path fill-rule="evenodd" clip-rule="evenodd" d="M10.0604 3.11032C10.4137 3.48885 10.3932 4.08209 10.0147 4.43536L4.65756 9.43536C4.46741 9.61284 4.21209 9.70334 3.95262 9.68522C3.69316 9.66712 3.45287 9.54204 3.28922 9.33987L1.77136 7.46487C1.44559 7.06245 1.50772 6.47211 1.91016 6.14634C2.31259 5.82056 2.90292 5.8827 3.2287 6.28512L4.11361 7.37826L8.73536 3.06464C9.11387 2.71136 9.70711 2.73181 10.0604 3.11032ZM10.0604 20.6104C10.4137 20.9889 10.3932 21.5821 10.0147 21.9354L4.65756 26.9354C4.46741 27.1129 4.21209 27.2034 3.95262 27.1852C3.69316 27.1671 3.45287 27.042 3.28922 26.8399L1.77136 24.9649C1.44559 24.5625 1.50772 23.9721 1.91016 23.6464C2.31259 23.3205 2.90292 23.3827 3.2287 23.7851L4.11361 24.8782L8.73536 20.5646C9.11387 20.2114 9.70711 20.2319 10.0604 20.6104ZM14.0625 23.75C14.0625 23.2322 14.4823 22.8125 15 22.8125H27.5C28.0178 22.8125 28.4375 23.2322 28.4375 23.75C28.4375 24.2677 28.0178 24.6875 27.5 24.6875H15C14.4823 24.6875 14.0625 24.2677 14.0625 23.75ZM14.0625 6.25C14.0625 5.73224 14.4823 5.3125 15 5.3125H27.5C28.0178 5.3125 28.4375 5.73224 28.4375 6.25C28.4375 6.76776 28.0178 7.1875 27.5 7.1875H15C14.4823 7.1875 14.0625 6.76776 14.0625 6.25Z" fill="white"/>
</svg>
