<svg width="4" height="18" viewBox="0 0 4 18" fill="none" xmlns="http://www.w3.org/2000/svg">
<path d="M2.00033 4.41667C2.36293 4.41667 2.71738 4.30914 3.01887 4.1077C3.32036 3.90625 3.55535 3.61992 3.69411 3.28492C3.83287 2.94992 3.86917 2.5813 3.79843 2.22567C3.72769 1.87004 3.55309 1.54337 3.29669 1.28697C3.04029 1.03058 2.71362 0.855967 2.35799 0.785228C2.00236 0.714488 1.63374 0.750794 1.29874 0.889555C0.963743 1.02832 0.677415 1.2633 0.475966 1.56479C0.274516 1.86628 0.166993 2.22074 0.166993 2.58333C0.166993 3.06956 0.360148 3.53588 0.703964 3.8797C1.04778 4.22351 1.5141 4.41667 2.00033 4.41667ZM2.00033 13.5833C1.63773 13.5833 1.28327 13.6909 0.981781 13.8923C0.680291 14.0938 0.445308 14.3801 0.306547 14.7151C0.167787 15.0501 0.13148 15.4187 0.20222 15.7743C0.27296 16.13 0.447568 16.4566 0.703964 16.713C0.960361 16.9694 1.28703 17.144 1.64266 17.2148C1.99829 17.2855 2.36691 17.2492 2.70191 17.1104C3.03691 16.9717 3.32324 16.7367 3.52469 16.4352C3.72614 16.1337 3.83366 15.7793 3.83366 15.4167C3.83366 14.9304 3.64051 14.4641 3.29669 14.1203C2.95287 13.7765 2.48656 13.5833 2.00033 13.5833ZM2.00033 7.16667C1.63773 7.16667 1.28327 7.27419 0.981781 7.47564C0.680291 7.67709 0.445308 7.96342 0.306547 8.29842C0.167787 8.63341 0.13148 9.00204 0.20222 9.35767C0.27296 9.7133 0.447568 10.04 0.703964 10.2964C0.960361 10.5528 1.28703 10.7274 1.64266 10.7981C1.99829 10.8688 2.36691 10.8325 2.70191 10.6938C3.03691 10.555 3.32324 10.32 3.52469 10.0185C3.72614 9.71706 3.83366 9.3626 3.83366 9C3.83366 8.51377 3.64051 8.04746 3.29669 7.70364C2.95287 7.35982 2.48656 7.16667 2.00033 7.16667Z" fill="#FFC400"/>
</svg>
