<svg width="14" height="14" viewBox="0 0 14 14" fill="none" xmlns="http://www.w3.org/2000/svg">
<g clip-path="url(#clip0_3329_11855)">
<path d="M6.41675 2.33301H2.33341C2.024 2.33301 1.72725 2.45592 1.50846 2.67472C1.28966 2.89351 1.16675 3.19026 1.16675 3.49967V11.6663C1.16675 11.9758 1.28966 12.2725 1.50846 12.4913C1.72725 12.7101 2.024 12.833 2.33341 12.833H10.5001C10.8095 12.833 11.1062 12.7101 11.325 12.4913C11.5438 12.2725 11.6667 11.9758 11.6667 11.6663V7.58301" stroke="#FFC400" stroke-width="1.2" stroke-linecap="round" stroke-linejoin="round"/>
<path d="M10.7917 1.45814C11.0238 1.22608 11.3386 1.0957 11.6667 1.0957C11.9949 1.0957 12.3097 1.22608 12.5417 1.45814C12.7738 1.6902 12.9042 2.00495 12.9042 2.33314C12.9042 2.66133 12.7738 2.97608 12.5417 3.20814L7.00008 8.74981L4.66675 9.33314L5.25008 6.99981L10.7917 1.45814Z" stroke="#FFC400" stroke-width="1.2" stroke-linecap="round" stroke-linejoin="round"/>
</g>
<defs>
<clipPath id="clip0_3329_11855">
<rect width="14" height="14" fill="white"/>
</clipPath>
</defs>
</svg>
