<svg width="30" height="30" viewBox="0 0 30 30" fill="none" xmlns="http://www.w3.org/2000/svg">
<path d="M25.7624 23.9874C26.5458 22.9373 27.0834 21.7247 27.3355 20.4392C27.5876 19.1536 27.5478 17.8278 27.2191 16.5596C26.8903 15.2914 26.281 14.1133 25.4361 13.1121C24.5912 12.1109 23.5322 11.3121 22.3374 10.7749C22.0771 9.27751 21.479 7.85916 20.5884 6.6276C19.6979 5.39604 18.5383 4.38367 17.1978 3.66742C15.8574 2.95117 14.3713 2.54989 12.8525 2.49406C11.3337 2.43822 9.82213 2.72931 8.43269 3.34521C7.04325 3.9611 5.81248 4.8856 4.83389 6.04845C3.8553 7.2113 3.15464 8.58191 2.78514 10.0561C2.41564 11.5304 2.38704 13.0694 2.70149 14.5563C3.01595 16.0433 3.66519 17.439 4.5999 18.6374L2.8624 20.3624C2.68895 20.5382 2.57145 20.7614 2.52474 21.0039C2.47802 21.2464 2.50417 21.4972 2.5999 21.7249C2.69367 21.9532 2.85292 22.1486 3.05757 22.2865C3.26222 22.4244 3.50312 22.4987 3.7499 22.4999H10.8624C11.5707 23.9931 12.6874 25.2553 14.0833 26.1401C15.4792 27.025 17.0972 27.4964 18.7499 27.4999H26.2499C26.4967 27.4987 26.7376 27.4244 26.9422 27.2865C27.1469 27.1486 27.3061 26.9532 27.3999 26.7249C27.4956 26.4972 27.5218 26.2464 27.4751 26.0039C27.4283 25.7614 27.3108 25.5382 27.1374 25.3624L25.7624 23.9874ZM9.9999 18.7499C10.0016 19.1685 10.035 19.5863 10.0999 19.9999H6.7624L7.1999 19.5749C7.31706 19.4587 7.41005 19.3204 7.47351 19.1681C7.53697 19.0158 7.56965 18.8524 7.56965 18.6874C7.56965 18.5224 7.53697 18.359 7.47351 18.2067C7.41005 18.0543 7.31706 17.9161 7.1999 17.7999C6.49935 17.107 5.94396 16.2814 5.56621 15.3714C5.18847 14.4614 4.99594 13.4852 4.9999 12.4999C4.9999 10.5108 5.79007 8.60311 7.1966 7.19658C8.60312 5.79006 10.5108 4.99988 12.4999 4.99988C14.052 4.99056 15.568 5.46786 16.8348 6.36471C18.1016 7.26156 19.0555 8.53285 19.5624 9.99988C19.2874 9.99988 19.0249 9.99988 18.7499 9.99988C16.4293 9.99988 14.2037 10.9218 12.5627 12.5627C10.9218 14.2036 9.9999 16.4292 9.9999 18.7499ZM23.1749 24.9999L23.2374 25.0624H18.7499C17.3041 25.0598 15.9039 24.556 14.7878 23.6369C13.6717 22.7177 12.9089 21.4401 12.6291 20.0216C12.3494 18.603 12.5702 17.1314 13.2537 15.8574C13.9373 14.5834 15.0415 13.5858 16.3781 13.0345C17.7147 12.4832 19.2011 12.4124 20.5841 12.8342C21.967 13.2559 23.161 14.144 23.9626 15.3473C24.7642 16.5506 25.1238 17.9946 24.9801 19.4333C24.8365 20.8719 24.1985 22.2163 23.1749 23.2374C22.9394 23.4682 22.8046 23.7827 22.7999 24.1124C22.8006 24.2778 22.8341 24.4414 22.8985 24.5937C22.9628 24.7461 23.0568 24.8841 23.1749 24.9999Z" fill="white"/>
</svg>
