<svg width="20" height="20" viewBox="0 0 20 20" fill="none" xmlns="http://www.w3.org/2000/svg">
<path d="M17.1749 15.9916C17.6972 15.2915 18.0556 14.4832 18.2237 13.6261C18.3917 12.769 18.3652 11.8852 18.1461 11.0397C17.9269 10.1943 17.5207 9.40885 16.9574 8.74138C16.3941 8.0739 15.6882 7.54143 14.8916 7.18326C14.7181 6.18501 14.3193 5.23944 13.7256 4.4184C13.1319 3.59736 12.3589 2.92245 11.4652 2.44495C10.5716 1.96745 9.58084 1.69992 8.56831 1.6627C7.55578 1.62548 6.54809 1.81954 5.62179 2.23014C4.6955 2.64074 3.87499 3.25707 3.22259 4.0323C2.5702 4.80753 2.10309 5.72127 1.85676 6.70409C1.61043 7.6869 1.59136 8.71293 1.801 9.70423C2.01063 10.6955 2.44346 11.626 3.0666 12.4249L1.90826 13.5749C1.79263 13.6921 1.7143 13.8409 1.68316 14.0026C1.65201 14.1642 1.66945 14.3315 1.73326 14.4833C1.79578 14.6354 1.90195 14.7657 2.03838 14.8577C2.17481 14.9496 2.33541 14.9991 2.49993 14.9999H7.2416C7.7138 15.9954 8.4583 16.8368 9.38889 17.4268C10.3195 18.0167 11.3981 18.331 12.4999 18.3333H17.4999C17.6645 18.3324 17.8251 18.2829 17.9615 18.191C18.0979 18.099 18.2041 17.9688 18.2666 17.8166C18.3304 17.6648 18.3478 17.4976 18.3167 17.3359C18.2856 17.1743 18.2072 17.0254 18.0916 16.9083L17.1749 15.9916ZM6.6666 12.4999C6.66774 12.779 6.69003 13.0576 6.73326 13.3333H4.50826L4.79993 13.0499C4.87804 12.9725 4.94003 12.8803 4.98234 12.7787C5.02465 12.6772 5.04643 12.5683 5.04643 12.4583C5.04643 12.3482 5.02465 12.2393 4.98234 12.1378C4.94003 12.0362 4.87804 11.9441 4.79993 11.8666C4.3329 11.4047 3.96264 10.8543 3.71081 10.2476C3.45898 9.64093 3.33063 8.99012 3.33326 8.33326C3.33326 7.00717 3.86005 5.7354 4.79773 4.79772C5.73541 3.86004 7.00718 3.33326 8.33327 3.33326C9.368 3.32704 10.3787 3.64524 11.2232 4.24314C12.0677 4.84104 12.7037 5.68857 13.0416 6.66659C12.8583 6.66659 12.6833 6.66659 12.4999 6.66659C10.9528 6.66659 9.46911 7.28117 8.37514 8.37513C7.28118 9.4691 6.6666 10.9528 6.6666 12.4999ZM15.4499 16.6666L15.4916 16.7083H12.4999C11.536 16.7065 10.6026 16.3707 9.85853 15.7579C9.11449 15.1452 8.60591 14.2934 8.41943 13.3477C8.23295 12.402 8.3801 11.421 8.83583 10.5716C9.29155 9.72226 10.0277 9.05718 10.9187 8.68967C11.8098 8.32217 12.8007 8.27497 13.7227 8.55611C14.6447 8.83726 15.4407 9.42936 15.9751 10.2315C16.5094 11.0337 16.7492 11.9964 16.6534 12.9555C16.5577 13.9146 16.1324 14.8109 15.4499 15.4916C15.2929 15.6454 15.2031 15.8551 15.1999 16.0749C15.2004 16.1852 15.2227 16.2942 15.2656 16.3958C15.3085 16.4974 15.3712 16.5894 15.4499 16.6666Z" fill="#FFC400"/>
</svg>
