<svg width="18" height="18" viewBox="0 0 18 18" fill="none" xmlns="http://www.w3.org/2000/svg">
<path d="M8.99989 0.666504C7.90554 0.666504 6.82191 0.882052 5.81086 1.30084C4.79981 1.71963 3.88115 2.33346 3.10733 3.10728C1.54453 4.67008 0.666555 6.7897 0.666555 8.99984C0.65927 10.9241 1.32555 12.7903 2.54989 14.2748L0.883222 15.9415C0.76759 16.0587 0.68926 16.2075 0.658115 16.3692C0.62697 16.5308 0.644405 16.6981 0.708222 16.8498C0.777437 16.9998 0.889642 17.1258 1.03059 17.2118C1.17155 17.2979 1.33489 17.3401 1.49989 17.3332H8.99989C11.21 17.3332 13.3296 16.4552 14.8924 14.8924C16.4553 13.3296 17.3332 11.21 17.3332 8.99984C17.3332 6.7897 16.4553 4.67008 14.8924 3.10728C13.3296 1.54448 11.21 0.666504 8.99989 0.666504ZM8.99989 15.6665H3.50822L4.28322 14.8915C4.43843 14.7354 4.52555 14.5242 4.52555 14.304C4.52555 14.0838 4.43843 13.8726 4.28322 13.7165C3.19204 12.6265 2.51253 11.192 2.36046 9.65716C2.2084 8.12238 2.59317 6.58234 3.44924 5.29944C4.30532 4.01654 5.57972 3.07014 7.05532 2.62148C8.53092 2.17283 10.1164 2.24967 11.5417 2.83893C12.967 3.42819 14.1439 4.4934 14.8719 5.85308C15.5999 7.21276 15.834 8.78279 15.5342 10.2957C15.2344 11.8086 14.4193 13.1707 13.2278 14.15C12.0364 15.1294 10.5422 15.6653 8.99989 15.6665Z" fill="#FFC400"/>
</svg>
