<svg width="28" height="28" viewBox="0 0 28 28" fill="none" xmlns="http://www.w3.org/2000/svg">
<rect x="0.5" y="0.5" width="27" height="27" rx="9.5" stroke="white"/>
<path d="M14 7.33334C13.1246 7.33334 12.2576 7.50577 11.4488 7.84081C10.64 8.17584 9.90505 8.6669 9.28599 9.28596C8.03575 10.5362 7.33337 12.2319 7.33337 14C7.32754 15.5394 7.86056 17.0324 8.84003 18.22L7.5067 19.5533C7.41419 19.6471 7.35153 19.7661 7.32661 19.8955C7.3017 20.0248 7.31565 20.1586 7.3667 20.28C7.42207 20.4 7.51184 20.5008 7.6246 20.5696C7.73736 20.6384 7.86803 20.6722 8.00003 20.6667H14C15.7681 20.6667 17.4638 19.9643 18.7141 18.714C19.9643 17.4638 20.6667 15.7681 20.6667 14C20.6667 12.2319 19.9643 10.5362 18.7141 9.28596C17.4638 8.03571 15.7681 7.33334 14 7.33334ZM14 19.3333H9.6067L10.2267 18.7133C10.3509 18.5884 10.4206 18.4195 10.4206 18.2433C10.4206 18.0672 10.3509 17.8982 10.2267 17.7733C9.35376 16.9014 8.81015 15.7537 8.68849 14.5259C8.56684 13.298 8.87466 12.066 9.55952 11.0397C10.2444 10.0134 11.2639 9.25624 12.4444 8.89732C13.6249 8.53839 14.8933 8.59987 16.0335 9.07128C17.1737 9.54268 18.1153 10.3949 18.6977 11.4826C19.2801 12.5703 19.4673 13.8264 19.2275 15.0367C18.9876 16.247 18.3356 17.3367 17.3824 18.1202C16.4292 18.9036 15.2339 19.3324 14 19.3333Z" fill="white"/>
</svg>
