<svg width="14" height="14" viewBox="0 0 14 14" fill="none" xmlns="http://www.w3.org/2000/svg">
<path d="M7.00003 0.333374C6.12456 0.333374 5.25765 0.505812 4.44881 0.840844C3.63997 1.17588 2.90505 1.66694 2.28599 2.286C1.03575 3.53624 0.333366 5.23193 0.333366 7.00004C0.327538 8.53946 0.860561 10.0324 1.84003 11.22L0.506699 12.5534C0.414194 12.6471 0.35153 12.7662 0.326614 12.8955C0.301698 13.0248 0.315646 13.1586 0.366699 13.28C0.422071 13.4 0.511836 13.5008 0.624597 13.5696C0.737359 13.6385 0.868033 13.6723 1.00003 13.6667H7.00003C8.76814 13.6667 10.4638 12.9643 11.7141 11.7141C12.9643 10.4638 13.6667 8.76815 13.6667 7.00004C13.6667 5.23193 12.9643 3.53624 11.7141 2.286C10.4638 1.03575 8.76814 0.333374 7.00003 0.333374ZM7.00003 12.3334H2.6067L3.2267 11.7134C3.35087 11.5885 3.42056 11.4195 3.42056 11.2434C3.42056 11.0673 3.35087 10.8983 3.2267 10.7734C2.35376 9.9014 1.81015 8.75373 1.68849 7.5259C1.56684 6.29807 1.87466 5.06604 2.55952 4.03972C3.24437 3.0134 4.26389 2.25628 5.44438 1.89736C6.62486 1.53843 7.89327 1.59991 9.03351 2.07132C10.1737 2.54272 11.1153 3.39489 11.6977 4.48264C12.2801 5.57038 12.4673 6.8264 12.2275 8.03671C11.9876 9.24702 11.3356 10.3367 10.3824 11.1202C9.42921 11.9037 8.23388 12.3324 7.00003 12.3334Z" fill="#888888"/>
</svg>
