<svg width="16" height="16" viewBox="0 0 16 16" fill="none" xmlns="http://www.w3.org/2000/svg">
<path d="M8 0C3.58261 0 0 3.58261 0 8C0 12.4174 3.58261 16 8 16C12.4174 16 16 12.4174 16 8C16 3.58261 12.4174 0 8 0ZM8.64348 14.5739C8.6087 14.5739 8.57391 14.5739 8.52174 14.5913V10.8174C9.42609 10.8 10.2435 10.7826 10.9913 10.7304C10.3304 12.7652 9.09565 14.1217 8.64348 14.5739ZM7.35652 14.5739C6.88696 14.1043 5.66957 12.7478 5.0087 10.7304C5.73913 10.7826 6.57391 10.8174 7.47826 10.8174V14.5913C7.44348 14.5913 7.4087 14.5739 7.35652 14.5739ZM1.3913 8C1.3913 7.56522 1.44348 7.13043 1.51304 6.71304C1.89565 6.64348 2.62609 6.53913 3.65217 6.43478C3.56522 6.93913 3.51304 7.46087 3.51304 8.01739C3.51304 8.57391 3.56522 9.09565 3.63478 9.58261C2.62609 9.47826 1.87826 9.37391 1.49565 9.30435C1.44348 8.86957 1.3913 8.43478 1.3913 8ZM4.57391 8C4.57391 7.4087 4.64348 6.85217 4.74783 6.33044C5.54783 6.27826 6.45217 6.22609 7.47826 6.22609V9.77391C6.46957 9.75652 5.54783 9.72174 4.73043 9.65217C4.64348 9.14783 4.57391 8.5913 4.57391 8ZM8.62609 1.42609C9.09565 1.89565 10.2957 3.28696 10.9739 5.26957C10.2435 5.21739 9.42609 5.18261 8.52174 5.18261V1.4087C8.55652 1.4087 8.5913 1.42609 8.62609 1.42609ZM7.47826 1.4087V5.18261C6.57391 5.2 5.75652 5.21739 5.02609 5.26957C5.68696 3.28696 6.90435 1.89565 7.35652 1.42609C7.4087 1.42609 7.44348 1.4087 7.47826 1.4087ZM8.52174 9.77391V6.22609C9.53043 6.24348 10.4522 6.27826 11.2522 6.33044C11.3565 6.85217 11.4261 7.4087 11.4261 8C11.4261 8.5913 11.3739 9.14783 11.2696 9.66957C10.4696 9.72174 9.54783 9.75652 8.52174 9.77391ZM12.3304 6.43478C13.3565 6.53913 14.087 6.64348 14.4696 6.71304C14.5565 7.13043 14.6087 7.56522 14.6087 8C14.6087 8.43478 14.5565 8.86957 14.487 9.28696C14.1043 9.35652 13.3739 9.46087 12.3478 9.56522C12.4348 9.06087 12.4696 8.53913 12.4696 7.98261C12.4696 7.46087 12.4174 6.92174 12.3304 6.43478ZM14.1565 5.6C13.6696 5.53044 12.9739 5.44348 12.087 5.35652C11.6696 3.86087 10.9391 2.66087 10.3304 1.8087C12.087 2.46957 13.4783 3.86087 14.1565 5.6ZM5.66957 1.8087C5.04348 2.64348 4.33043 3.84348 3.91304 5.33913C3.04348 5.4087 2.34783 5.51304 1.84348 5.58261C2.52174 3.86087 3.93043 2.46957 5.66957 1.8087ZM1.84348 10.4C2.33043 10.4696 3.02609 10.5565 3.89565 10.6435C4.31304 12.1391 5.0087 13.3391 5.63478 14.1739C3.89565 13.4957 2.52174 12.1217 1.84348 10.4ZM10.3652 14.1739C10.9913 13.3391 11.687 12.1565 12.1043 10.6609C12.9739 10.5913 13.6696 10.487 14.1565 10.4174C13.4783 12.1217 12.1043 13.4957 10.3652 14.1739Z" fill="white"/>
</svg>
