<svg width="16" height="16" viewBox="0 0 16 16" fill="none" xmlns="http://www.w3.org/2000/svg">
<path d="M8.01055 0.463501C7.02703 0.463501 6.05313 0.657486 5.14447 1.03438C4.23581 1.41127 3.41018 1.96369 2.71472 2.6601C1.31017 4.06656 0.52111 5.97413 0.52111 7.96317C0.514563 9.69494 1.11337 11.3744 2.21372 12.7105L0.715836 14.2104C0.611914 14.3159 0.541516 14.4498 0.513525 14.5953C0.485534 14.7408 0.501203 14.8913 0.558557 15.0279C0.620763 15.1628 0.721606 15.2762 0.848284 15.3536C0.974962 15.4311 1.12176 15.4691 1.27005 15.4628H8.01055C9.99688 15.4628 11.9018 14.6727 13.3064 13.2662C14.7109 11.8598 15.5 9.9522 15.5 7.96317C15.5 5.97413 14.7109 4.06656 13.3064 2.6601C11.9018 1.25364 9.99688 0.463501 8.01055 0.463501ZM8.01055 13.9629H3.07501L3.77153 13.2654C3.91102 13.1249 3.98932 12.9348 3.98932 12.7367C3.98932 12.5386 3.91102 12.3485 3.77153 12.208C2.79085 11.2271 2.18015 9.93599 2.04348 8.55474C1.90681 7.17349 2.25263 5.78752 3.02201 4.63296C3.79138 3.4784 4.93673 2.62667 6.2629 2.2229C7.58908 1.81913 9.01403 1.88829 10.295 2.4186C11.576 2.94891 12.6337 3.90755 13.2879 5.13121C13.9422 6.35487 14.1526 7.76784 13.8831 9.12937C13.6137 10.4909 12.8812 11.7168 11.8104 12.5981C10.7395 13.4795 9.39667 13.9618 8.01055 13.9629Z" fill="#FFC400"/>
</svg>
