<svg width="17" height="18" viewBox="0 0 17 18" fill="none" xmlns="http://www.w3.org/2000/svg">
<path d="M15.854 14.8961C16.371 14.2031 16.7258 13.4028 16.8922 12.5543C17.0586 11.7059 17.0323 10.8308 16.8154 9.99387C16.5984 9.1569 16.1963 8.37932 15.6386 7.71853C15.081 7.05774 14.3821 6.5306 13.5935 6.17602C13.4218 5.18776 13.027 4.25167 12.4392 3.43885C11.8514 2.62603 11.0861 1.95788 10.2014 1.48516C9.31676 1.01245 8.33595 0.747603 7.33356 0.710754C6.33117 0.673906 5.33357 0.866022 4.41656 1.27251C3.49954 1.67899 2.68724 2.28915 2.04138 3.05662C1.39552 3.82409 0.933093 4.72867 0.689229 5.70164C0.445366 6.67462 0.426486 7.69037 0.634023 8.67174C0.841561 9.6531 1.27006 10.5742 1.88695 11.3652L0.740218 12.5037C0.625745 12.6197 0.548199 12.767 0.517366 12.927C0.486533 13.0871 0.503794 13.2527 0.566971 13.4029C0.628862 13.5536 0.733963 13.6825 0.86903 13.7736C1.0041 13.8646 1.16309 13.9136 1.32596 13.9144H6.02014C6.48761 14.8999 7.22465 15.7329 8.14592 16.3169C9.06719 16.9009 10.135 17.2121 11.2258 17.2143H16.1757C16.3386 17.2135 16.4976 17.1645 16.6327 17.0735C16.7677 16.9825 16.8728 16.8535 16.9347 16.7029C16.9979 16.5526 17.0152 16.387 16.9843 16.227C16.9535 16.0669 16.8759 15.9196 16.7615 15.8036L15.854 14.8961ZM5.45089 11.4394C5.45203 11.7157 5.47409 11.9915 5.51689 12.2644H3.31418L3.60292 11.9839C3.68025 11.9072 3.74162 11.816 3.78351 11.7155C3.82539 11.6149 3.84695 11.5071 3.84695 11.3982C3.84695 11.2893 3.82539 11.1814 3.78351 11.0809C3.74162 10.9804 3.68025 10.8891 3.60292 10.8124C3.14057 10.3552 2.77402 9.81028 2.52471 9.20968C2.2754 8.60907 2.14834 7.96479 2.15095 7.3145C2.15095 6.0017 2.67245 4.74266 3.60075 3.81437C4.52904 2.88608 5.78807 2.36457 7.10087 2.36457C8.12524 2.35842 9.12579 2.67344 9.96187 3.26535C10.7979 3.85726 11.4275 4.6963 11.762 5.66452C11.5806 5.66452 11.4073 5.66452 11.2258 5.66452C9.6942 5.66452 8.22533 6.27295 7.14233 7.35596C6.05932 8.43896 5.45089 9.90783 5.45089 11.4394ZM14.1463 15.5644L14.1875 15.6056H11.2258C10.2716 15.6039 9.34745 15.2714 8.61086 14.6648C7.87427 14.0582 7.37078 13.2149 7.18617 12.2787C7.00156 11.3425 7.14724 10.3713 7.5984 9.53043C8.04956 8.68959 8.77829 8.03117 9.66044 7.66735C10.5426 7.30352 11.5236 7.25679 12.4363 7.53512C13.3491 7.81345 14.1371 8.39962 14.6661 9.19378C15.1952 9.98793 15.4325 10.9409 15.3377 11.8905C15.2429 12.84 14.8219 13.7272 14.1463 14.4011C13.9908 14.5535 13.9019 14.761 13.8988 14.9786C13.8992 15.0878 13.9213 15.1958 13.9638 15.2963C14.0063 15.3968 14.0683 15.488 14.1463 15.5644Z" fill="#FFC400"/>
</svg>
