<svg width="20" height="19" viewBox="0 0 20 19" fill="none" xmlns="http://www.w3.org/2000/svg">
<path d="M16.5562 12.1372L13.5701 17.0099C13.2421 17.5482 12.7957 18.0047 12.2648 18.3445C11.7339 18.6843 11.1325 18.8985 10.5063 18.9709C10.3413 18.9904 10.1753 19.0002 10.0091 19.0002C9.15848 18.999 8.32895 18.7349 7.63415 18.2441C6.91615 18.782 6.02923 19.045 5.13407 18.9853C4.23892 18.9256 3.39475 18.5473 2.75451 17.9188C2.11428 17.2903 1.72033 16.4533 1.64405 15.5594C1.56777 14.6655 1.8142 13.7739 2.33869 13.046L1.29765 12.0066C0.853126 11.562 0.514941 11.0227 0.308424 10.4289C0.101906 9.8351 0.0324081 9.20228 0.105134 8.57783C0.177859 7.95338 0.390924 7.35348 0.728371 6.82305C1.06582 6.29262 1.5189 5.84541 2.05369 5.51491L6.61923 2.69183C7.85598 1.89919 9.3104 1.5149 10.7773 1.59316C12.2441 1.67143 13.6494 2.2083 14.7948 3.12804L16.1081 1.81466C16.1812 1.73905 16.2685 1.67874 16.3651 1.63725C16.4617 1.59576 16.5656 1.57392 16.6707 1.573C16.7758 1.57209 16.8801 1.59212 16.9774 1.63193C17.0747 1.67173 17.163 1.73052 17.2374 1.80485C17.3117 1.87918 17.3705 1.96757 17.4103 2.06486C17.4501 2.16216 17.4701 2.2664 17.4692 2.37152C17.4683 2.47664 17.4465 2.58052 17.405 2.67711C17.3635 2.77369 17.3032 2.86105 17.2276 2.93408L15.9158 4.24666C16.7956 5.34885 17.3265 6.6885 17.4406 8.09416C17.5547 9.49982 17.2468 10.9075 16.5562 12.1372ZM6.42765 17.1374L3.48344 14.1924C3.25336 14.6038 3.16463 15.0794 3.23084 15.5462C3.29705 16.013 3.51455 16.4451 3.84998 16.7764C4.18836 17.0978 4.61875 17.3054 5.08094 17.3701C5.54313 17.4349 6.01399 17.3535 6.42765 17.1374ZM14.2818 4.78737C13.4027 3.89978 12.2454 3.34101 11.0036 3.20454C9.76185 3.06807 8.51087 3.36218 7.45998 4.03766L2.88652 6.86074C2.55485 7.06576 2.27385 7.34316 2.06458 7.67216C1.85531 8.00117 1.72319 8.37326 1.6781 8.76057C1.63302 9.14788 1.67615 9.54037 1.80426 9.90865C1.93237 10.2769 2.14214 10.6114 2.41786 10.8872L8.18911 16.6592C8.46527 16.9357 8.80052 17.1459 9.16966 17.2742C9.53879 17.4024 9.9322 17.4453 10.3203 17.3996C10.7084 17.3538 11.081 17.2207 11.4103 17.0102C11.7395 16.7997 12.0167 16.5173 12.2211 16.1842L15.1938 11.3352C15.7744 10.2924 15.9995 9.08879 15.8349 7.90661C15.6703 6.72443 15.1251 5.62804 14.2818 4.78341V4.78737ZM15.2943 19.0002C15.1271 19.0005 14.9641 18.9478 14.8287 18.8498C14.6933 18.7518 14.5923 18.6134 14.5404 18.4545C14.4884 18.2956 14.4881 18.1243 14.5395 17.9652C14.5909 17.8061 14.6914 17.6673 14.8264 17.5688C16.2127 16.5266 17.1508 14.9964 17.4508 13.2883C17.4719 13.1855 17.5131 13.0878 17.5722 13.0011C17.6313 12.9144 17.7071 12.8403 17.7951 12.7831C17.8831 12.7259 17.9816 12.6868 18.0849 12.668C18.1882 12.6493 18.2941 12.6512 18.3966 12.6738C18.4991 12.6964 18.5961 12.7391 18.682 12.7995C18.7678 12.8599 18.8408 12.9368 18.8967 13.0256C18.9525 13.1145 18.9901 13.2136 19.0074 13.3171C19.0246 13.4206 19.021 13.5265 18.9969 13.6287C18.609 15.7121 17.4543 17.5744 15.7606 18.8482C15.6252 18.9469 15.4619 19.0001 15.2943 19.0002ZM0.834525 4.54354C0.688306 4.54288 0.545125 4.50175 0.420856 4.42469C0.296587 4.34764 0.196087 4.23767 0.130499 4.10699C0.0649107 3.9763 0.036797 3.83001 0.049275 3.68432C0.061753 3.53863 0.114335 3.39925 0.201191 3.28162C1.49238 1.55625 3.39305 0.388333 5.51565 0.0159948C5.72141 -0.0259978 5.93543 0.0154688 6.11062 0.131273C6.28581 0.247076 6.40782 0.427731 6.44982 0.633495C6.49181 0.839259 6.45034 1.05328 6.33454 1.22847C6.21873 1.40366 6.03808 1.52567 5.83232 1.56766C4.08905 1.85553 2.52492 2.80712 1.46786 4.22291C1.39453 4.32196 1.29909 4.40253 1.18914 4.45819C1.07919 4.51385 0.957762 4.54308 0.834525 4.54354Z" fill="#888888"/>
</svg>
