<svg width="20" height="19" viewBox="0 0 20 19" fill="none" xmlns="http://www.w3.org/2000/svg">
<g clip-path="url(#clip0_140_1251)">
<path d="M15.0881 19H4.00472C1.8221 19 0.0463867 17.2243 0.0463867 15.0417V3.95833C0.0463867 1.77571 1.8221 0 4.00472 0H15.0881C17.2707 0 19.0464 1.77571 19.0464 3.95833V15.0417C19.0464 17.2243 17.2707 19 15.0881 19ZM4.00472 1.58333C2.6953 1.58333 1.62972 2.64892 1.62972 3.95833V15.0417C1.62972 16.3511 2.6953 17.4167 4.00472 17.4167H15.0881C16.3975 17.4167 17.4631 16.3511 17.4631 15.0417V3.95833C17.4631 2.64892 16.3975 1.58333 15.0881 1.58333H4.00472ZM4.40055 3.16667C3.74505 3.16667 3.21305 3.69867 3.21305 4.35417C3.21305 5.00967 3.74505 5.54167 4.40055 5.54167C5.05605 5.54167 5.58805 5.00967 5.58805 4.35417C5.58805 3.69867 5.05605 3.16667 4.40055 3.16667ZM14.6922 3.16667C14.0367 3.16667 13.5047 3.69867 13.5047 4.35417C13.5047 5.00967 14.0367 5.54167 14.6922 5.54167C15.3477 5.54167 15.8797 5.00967 15.8797 4.35417C15.8797 3.69867 15.3477 3.16667 14.6922 3.16667ZM4.40055 13.4583C3.74505 13.4583 3.21305 13.9903 3.21305 14.6458C3.21305 15.3013 3.74505 15.8333 4.40055 15.8333C5.05605 15.8333 5.58805 15.3013 5.58805 14.6458C5.58805 13.9903 5.05605 13.4583 4.40055 13.4583ZM14.6922 13.4583C14.0367 13.4583 13.5047 13.9903 13.5047 14.6458C13.5047 15.3013 14.0367 15.8333 14.6922 15.8333C15.3477 15.8333 15.8797 15.3013 15.8797 14.6458C15.8797 13.9903 15.3477 13.4583 14.6922 13.4583Z" fill="#888888"/>
</g>
<defs>
<clipPath id="clip0_140_1251">
<rect width="19" height="19" fill="white" transform="translate(0.0463867)"/>
</clipPath>
</defs>
</svg>
