<svg width="14" height="14" viewBox="0 0 14 14" fill="none" xmlns="http://www.w3.org/2000/svg">
<path d="M4.375 3.9375C4.25897 3.9375 4.14769 3.89141 4.06564 3.80936C3.98359 3.72731 3.9375 3.61603 3.9375 3.5V1.75C3.9375 1.63397 3.98359 1.52269 4.06564 1.44064C4.14769 1.35859 4.25897 1.3125 4.375 1.3125C4.49103 1.3125 4.60231 1.35859 4.68436 1.44064C4.76641 1.52269 4.8125 1.63397 4.8125 1.75V3.5C4.8125 3.61603 4.76641 3.72731 4.68436 3.80936C4.60231 3.89141 4.49103 3.9375 4.375 3.9375ZM9.625 3.9375C9.50897 3.9375 9.39769 3.89141 9.31564 3.80936C9.23359 3.72731 9.1875 3.61603 9.1875 3.5V1.75C9.1875 1.63397 9.23359 1.52269 9.31564 1.44064C9.39769 1.35859 9.50897 1.3125 9.625 1.3125C9.74103 1.3125 9.85231 1.35859 9.93436 1.44064C10.0164 1.52269 10.0625 1.63397 10.0625 1.75V3.5C10.0625 3.61603 10.0164 3.72731 9.93436 3.80936C9.85231 3.89141 9.74103 3.9375 9.625 3.9375Z" fill="#FFC400"/>
<path d="M11.375 12.6875H2.625C1.90137 12.6875 1.3125 12.0986 1.3125 11.375V3.5C1.3125 2.77637 1.90137 2.1875 2.625 2.1875H11.375C12.0986 2.1875 12.6875 2.77637 12.6875 3.5V11.375C12.6875 12.0986 12.0986 12.6875 11.375 12.6875ZM2.625 3.0625C2.50897 3.0625 2.39769 3.10859 2.31564 3.19064C2.23359 3.27269 2.1875 3.38397 2.1875 3.5V11.375C2.1875 11.491 2.23359 11.6023 2.31564 11.6844C2.39769 11.7664 2.50897 11.8125 2.625 11.8125H11.375C11.491 11.8125 11.6023 11.7664 11.6844 11.6844C11.7664 11.6023 11.8125 11.491 11.8125 11.375V3.5C11.8125 3.38397 11.7664 3.27269 11.6844 3.19064C11.6023 3.10859 11.491 3.0625 11.375 3.0625H2.625Z" fill="#FFC400"/>
<path d="M12.25 5.6875H1.75C1.63397 5.6875 1.52269 5.64141 1.44064 5.55936C1.35859 5.47731 1.3125 5.36603 1.3125 5.25C1.3125 5.13397 1.35859 5.02269 1.44064 4.94064C1.52269 4.85859 1.63397 4.8125 1.75 4.8125H12.25C12.366 4.8125 12.4773 4.85859 12.5594 4.94064C12.6414 5.02269 12.6875 5.13397 12.6875 5.25C12.6875 5.36603 12.6414 5.47731 12.5594 5.55936C12.4773 5.64141 12.366 5.6875 12.25 5.6875ZM4.8125 6.5625H5.6875V7.4375H4.8125V6.5625ZM6.5625 6.5625H7.4375V7.4375H6.5625V6.5625ZM8.3125 6.5625H9.1875V7.4375H8.3125V6.5625ZM10.0625 6.5625H10.9375V7.4375H10.0625V6.5625ZM3.0625 8.3125H3.9375V9.1875H3.0625V8.3125ZM4.8125 8.3125H5.6875V9.1875H4.8125V8.3125ZM6.5625 8.3125H7.4375V9.1875H6.5625V8.3125ZM8.3125 8.3125H9.1875V9.1875H8.3125V8.3125ZM10.0625 8.3125H10.9375V9.1875H10.0625V8.3125ZM3.0625 10.0625H3.9375V10.9375H3.0625V10.0625ZM4.8125 10.0625H5.6875V10.9375H4.8125V10.0625ZM6.5625 10.0625H7.4375V10.9375H6.5625V10.0625Z" fill="#FFC400"/>
</svg>
