<svg width="18" height="18" viewBox="0 0 18 18" fill="none" xmlns="http://www.w3.org/2000/svg">
<path d="M16.1749 14.9917C16.6972 14.2916 17.0556 13.4832 17.2237 12.6262C17.3917 11.7691 17.3652 10.8853 17.1461 10.0398C16.9269 9.19437 16.5207 8.40893 15.9574 7.74145C15.3941 7.07398 14.6882 6.54151 13.8916 6.18333C13.7181 5.18508 13.3193 4.23951 12.7256 3.41847C12.1319 2.59743 11.3589 1.92252 10.4652 1.44502C9.57157 0.967525 8.58084 0.700001 7.56831 0.66278C6.55578 0.625558 5.54809 0.819619 4.62179 1.23022C3.6955 1.64081 2.87499 2.25714 2.22259 3.03238C1.5702 3.80761 1.10309 4.72135 0.85676 5.70416C0.610429 6.68698 0.591358 7.71301 0.800995 8.7043C1.01063 9.69559 1.44346 10.6261 2.0666 11.425L0.908265 12.575C0.792633 12.6922 0.714303 12.841 0.683158 13.0027C0.652013 13.1643 0.669449 13.3316 0.733265 13.4833C0.795781 13.6355 0.901946 13.7658 1.03838 13.8577C1.17481 13.9497 1.33541 13.9992 1.49993 14H6.2416C6.7138 14.9955 7.4583 15.8369 8.38889 16.4268C9.31948 17.0167 10.3981 17.331 11.4999 17.3333H16.4999C16.6645 17.3325 16.8251 17.283 16.9615 17.1911C17.0979 17.0991 17.2041 16.9688 17.2666 16.8167C17.3304 16.6649 17.3478 16.4976 17.3167 16.336C17.2856 16.1743 17.2072 16.0255 17.0916 15.9083L16.1749 14.9917ZM5.6666 11.5C5.66774 11.7791 5.69003 12.0576 5.73326 12.3333H3.50826L3.79993 12.05C3.87804 11.9725 3.94003 11.8804 3.98234 11.7788C4.02465 11.6773 4.04643 11.5683 4.04643 11.4583C4.04643 11.3483 4.02465 11.2394 3.98234 11.1379C3.94003 11.0363 3.87804 10.9441 3.79993 10.8667C3.3329 10.4048 2.96264 9.85437 2.71081 9.24768C2.45898 8.641 2.33063 7.9902 2.33326 7.33333C2.33326 6.00725 2.86005 4.73548 3.79773 3.7978C4.73541 2.86012 6.00718 2.33333 7.33327 2.33333C8.368 2.32711 9.37867 2.64532 10.2232 3.24322C11.0677 3.84112 11.7037 4.68865 12.0416 5.66667C11.8583 5.66667 11.6833 5.66667 11.4999 5.66667C9.95284 5.66667 8.46911 6.28125 7.37514 7.37521C6.28118 8.46917 5.6666 9.9529 5.6666 11.5ZM14.4499 15.6667L14.4916 15.7083H11.4999C10.536 15.7066 9.60257 15.3708 8.85853 14.758C8.11449 14.1452 7.60591 13.2935 7.41943 12.3478C7.23295 11.4021 7.3801 10.421 7.83583 9.57168C8.29155 8.72233 9.02765 8.05725 9.91873 7.68975C10.8098 7.32224 11.8007 7.27504 12.7227 7.55619C13.6447 7.83734 14.4407 8.42944 14.9751 9.23162C15.5094 10.0338 15.7492 10.9965 15.6534 11.9556C15.5577 12.9147 15.1324 13.811 14.4499 14.4917C14.2929 14.6455 14.2031 14.8552 14.1999 15.075C14.2004 15.1853 14.2227 15.2943 14.2656 15.3959C14.3085 15.4974 14.3712 15.5895 14.4499 15.6667Z" fill="#FFC400"/>
</svg>
