<svg width="15" height="16" viewBox="0 0 15 16" fill="none" xmlns="http://www.w3.org/2000/svg">
<g clip-path="url(#clip0_1571_340)">
<path d="M5.16378 11.4345H2.18753C1.60737 11.4345 1.05097 11.204 0.640734 10.7938C0.230498 10.3835 2.99688e-05 9.82715 2.99688e-05 9.24699V5.95449C-0.00273967 5.09143 0.186496 4.23856 0.554028 3.45766C0.92156 2.67676 1.45819 1.98739 2.12503 1.43949C2.75723 0.914901 3.49962 0.539681 4.29692 0.341762C5.09422 0.143843 5.9259 0.128324 6.73003 0.296361C7.84 0.519642 8.85687 1.07236 9.64792 1.88237C10.439 2.69237 10.9675 3.72205 11.1644 4.83699C11.3106 5.62362 11.2802 6.4329 11.0755 7.20636C10.8708 7.97983 10.4968 8.69817 9.98065 9.30949C9.38111 9.9933 8.63935 10.5378 7.8073 10.9049C6.97525 11.2719 6.07302 11.4527 5.16378 11.4345ZM5.61191 2.05949C4.77201 2.05776 3.95819 2.35108 3.31253 2.88824C2.86324 3.26308 2.50165 3.73194 2.25328 4.26173C2.0049 4.79153 1.87579 5.36936 1.87503 5.95449V9.24699C1.87503 9.32987 1.90795 9.40935 1.96656 9.46796C2.02516 9.52656 2.10465 9.55949 2.18753 9.55949H5.16378C5.79984 9.57674 6.43201 9.45505 7.0162 9.20289C7.6004 8.95073 8.12256 8.57418 8.54628 8.09949C8.8848 7.69643 9.12954 7.22319 9.26281 6.71399C9.39609 6.20478 9.41456 5.67233 9.3169 5.15511C9.17951 4.41618 8.82579 3.73469 8.3006 3.19704C7.77542 2.65939 7.10241 2.2898 6.36691 2.13511C6.11829 2.08545 5.86543 2.06012 5.61191 2.05949ZM13.1119 6.29824C12.9146 6.13974 12.7056 5.99622 12.4869 5.86886C12.4845 6.57771 12.3677 7.28153 12.1413 7.95324C12.7675 8.57795 13.1211 9.42499 13.125 10.3095V12.997C13.125 13.0799 13.0921 13.1594 13.0335 13.218C12.9749 13.2766 12.8954 13.3095 12.8125 13.3095H10.4C9.90833 13.3205 9.41935 13.2338 8.96136 13.0545C8.50338 12.8753 8.0855 12.607 7.7319 12.2651C7.06898 12.4855 6.37994 12.6177 5.68253 12.6582C5.81412 12.8827 5.96378 13.0962 6.13003 13.2964C6.66116 13.9033 7.31854 14.3867 8.05613 14.7129C8.79372 15.039 9.59369 15.2 10.4 15.1845H12.8125C13.3927 15.1845 13.9491 14.954 14.3593 14.5438C14.7696 14.1335 15 13.5771 15 12.997V10.3095C15.0028 9.54308 14.8351 8.78565 14.5089 8.09208C14.1828 7.39852 13.7064 6.7862 13.1144 6.29949L13.1119 6.29824Z" fill="#888888"/>
</g>
<defs>
<clipPath id="clip0_1571_340">
<rect width="15" height="15" fill="white" transform="translate(0 0.18457)"/>
</clipPath>
</defs>
</svg>
