<svg width="10" height="10" viewBox="0 0 10 10" fill="none" xmlns="http://www.w3.org/2000/svg">
<g clip-path="url(#clip0_1292_4971)">
<path d="M7.70842 3.95833C7.87418 3.95833 8.03315 3.89249 8.15036 3.77527C8.26757 3.65806 8.33342 3.49909 8.33342 3.33333V3.04708C8.33265 2.4602 8.09917 1.89757 7.68418 1.48258C7.26919 1.06759 6.70656 0.834105 6.11967 0.833333H5.62509V0.625C5.62509 0.45924 5.55924 0.300269 5.44203 0.183058C5.32482 0.065848 5.16585 0 5.00009 0C4.83433 0 4.67536 0.065848 4.55815 0.183058C4.44094 0.300269 4.37509 0.45924 4.37509 0.625V0.833333H3.88051C3.34904 0.832541 2.83502 1.02298 2.43236 1.36985C2.0297 1.71672 1.76526 2.19688 1.68737 2.72261C1.60947 3.24833 1.7233 3.78454 2.00808 4.23327C2.29286 4.682 2.72956 5.01331 3.23842 5.16667L4.37509 5.4775V7.91667H3.88051C3.62501 7.91634 3.38006 7.81469 3.1994 7.63403C3.01873 7.45336 2.91709 7.20842 2.91676 6.95292V6.66667C2.91676 6.50091 2.85091 6.34194 2.7337 6.22472C2.61649 6.10751 2.45752 6.04167 2.29176 6.04167C2.126 6.04167 1.96703 6.10751 1.84981 6.22472C1.7326 6.34194 1.66676 6.50091 1.66676 6.66667V6.95292C1.66753 7.5398 1.90101 8.10243 2.316 8.51742C2.73099 8.93241 3.29362 9.16589 3.88051 9.16667H4.37509V9.375C4.37509 9.54076 4.44094 9.69973 4.55815 9.81694C4.67536 9.93415 4.83433 10 5.00009 10C5.16585 10 5.32482 9.93415 5.44203 9.81694C5.55924 9.69973 5.62509 9.54076 5.62509 9.375V9.16667H6.11967C6.65114 9.16746 7.16516 8.97702 7.56782 8.63015C7.97048 8.28328 8.23491 7.80312 8.31281 7.27739C8.39071 6.75167 8.27688 6.21546 7.9921 5.76673C7.70732 5.318 7.27062 4.98669 6.76176 4.83333L5.62509 4.52333V2.08333H6.11967C6.37517 2.08366 6.62012 2.18531 6.80078 2.36597C6.98145 2.54664 7.08309 2.79158 7.08342 3.04708V3.33333C7.08342 3.49909 7.14927 3.65806 7.26648 3.77527C7.38369 3.89249 7.54266 3.95833 7.70842 3.95833ZM6.40926 6.03292C6.62907 6.10219 6.8168 6.2479 6.93843 6.44366C7.06006 6.63942 7.10754 6.87227 7.07228 7.10003C7.03701 7.32778 6.92133 7.53537 6.7462 7.68518C6.57106 7.83499 6.34806 7.91711 6.11759 7.91667H5.62509V5.81875L6.40926 6.03292ZM4.37509 4.18125L3.59092 3.96708C3.37128 3.89787 3.18367 3.75232 3.06203 3.55678C2.94039 3.36124 2.89276 3.12862 2.92775 2.901C2.96274 2.67339 3.07804 2.46582 3.2528 2.31584C3.42755 2.16586 3.65022 2.08338 3.88051 2.08333H4.37509V4.18125Z" fill="#888888"/>
</g>
<defs>
<clipPath id="clip0_1292_4971">
<rect width="10" height="10" fill="white"/>
</clipPath>
</defs>
</svg>
