<svg width="24" height="25" viewBox="0 0 24 25" fill="none" xmlns="http://www.w3.org/2000/svg">
<path d="M18.5 2.63086H18V2.13086C18 1.73303 17.842 1.3515 17.5607 1.0702C17.2794 0.788895 16.8978 0.630859 16.5 0.630859V0.630859C16.1022 0.630859 15.7206 0.788895 15.4393 1.0702C15.158 1.3515 15 1.73303 15 2.13086V2.63086H9V2.13086C9 1.73303 8.84196 1.3515 8.56066 1.0702C8.27936 0.788895 7.89782 0.630859 7.5 0.630859V0.630859C7.10218 0.630859 6.72064 0.788895 6.43934 1.0702C6.15804 1.3515 6 1.73303 6 2.13086V2.63086H5.5C4.04131 2.63086 2.64236 3.21032 1.61091 4.24177C0.579463 5.27322 0 6.67217 0 8.13086L0 19.1309C0 20.5896 0.579463 21.9885 1.61091 23.0199C2.64236 24.0514 4.04131 24.6309 5.5 24.6309H18.5C19.9587 24.6309 21.3576 24.0514 22.3891 23.0199C23.4205 21.9885 24 20.5896 24 19.1309V8.13086C24 6.67217 23.4205 5.27322 22.3891 4.24177C21.3576 3.21032 19.9587 2.63086 18.5 2.63086ZM18.5 21.6309H5.5C4.83696 21.6309 4.20107 21.3675 3.73223 20.8986C3.26339 20.4298 3 19.7939 3 19.1309V10.6309H21V19.1309C21 19.7939 20.7366 20.4298 20.2678 20.8986C19.7989 21.3675 19.163 21.6309 18.5 21.6309Z" fill="#888888"/>
</svg>
