<svg width="10" height="10" viewBox="0 0 10 10" fill="none" xmlns="http://www.w3.org/2000/svg">
<path d="M8.72625 7.38605C8.32871 7.86855 7.81671 8.24386 7.23695 8.47777C6.65718 8.71168 6.02808 8.79674 5.40701 8.7252C4.78594 8.65366 4.19266 8.4278 3.68126 8.0682C3.16985 7.7086 2.7566 7.22671 2.47917 6.66646H6.04167C6.20743 6.66646 6.3664 6.60062 6.48361 6.48341C6.60082 6.3662 6.66667 6.20722 6.66667 6.04146C6.66667 5.8757 6.60082 5.71673 6.48361 5.59952C6.3664 5.48231 6.20743 5.41646 6.04167 5.41646H2.10792C2.07512 5.13965 2.07512 4.85994 2.10792 4.58313H6.04167C6.20743 4.58313 6.3664 4.51728 6.48361 4.40007C6.60082 4.28286 6.66667 4.12389 6.66667 3.95813C6.66667 3.79237 6.60082 3.6334 6.48361 3.51619C6.3664 3.39898 6.20743 3.33313 6.04167 3.33313H2.47917C2.7566 2.77288 3.16985 2.29099 3.68126 1.93139C4.19266 1.5718 4.78594 1.34593 5.40701 1.27439C6.02808 1.20285 6.65718 1.28792 7.23695 1.52182C7.81671 1.75573 8.32871 2.13105 8.72625 2.61355C8.83178 2.7414 8.98379 2.8221 9.14882 2.83788C9.31385 2.85367 9.47839 2.80325 9.60625 2.69771C9.73411 2.59218 9.8148 2.44018 9.83059 2.27515C9.84637 2.11011 9.79595 1.94557 9.69042 1.81771C9.12764 1.13501 8.39364 0.614015 7.56347 0.308021C6.73331 0.00202747 5.83676 -0.0779904 4.96553 0.0761506C4.0943 0.230292 3.27963 0.613061 2.60485 1.18531C1.93006 1.75757 1.41937 2.49877 1.125 3.33313H0.625C0.45924 3.33313 0.300268 3.39898 0.183058 3.51619C0.065848 3.6334 0 3.79237 0 3.95813C0 4.12389 0.065848 4.28286 0.183058 4.40007C0.300268 4.51728 0.45924 4.58313 0.625 4.58313H0.854583C0.842917 4.72105 0.833333 4.85896 0.833333 4.9998C0.833333 5.14063 0.842917 5.27855 0.854583 5.41646H0.625C0.45924 5.41646 0.300268 5.48231 0.183058 5.59952C0.065848 5.71673 0 5.8757 0 6.04146C0 6.20722 0.065848 6.3662 0.183058 6.48341C0.300268 6.60062 0.45924 6.66646 0.625 6.66646H1.125C1.41937 7.50082 1.93006 8.24203 2.60485 8.81428C3.27963 9.38653 4.0943 9.7693 4.96553 9.92344C5.83676 10.0776 6.73331 9.99757 7.56347 9.69157C8.39364 9.38558 9.12764 8.86459 9.69042 8.18188C9.79595 8.05402 9.84637 7.88948 9.83059 7.72445C9.8148 7.55942 9.73411 7.40742 9.60625 7.30188C9.54294 7.24963 9.46996 7.21035 9.39147 7.1863C9.31299 7.16225 9.23053 7.1539 9.14882 7.16171C8.98379 7.1775 8.83178 7.25819 8.72625 7.38605Z" fill="#888888"/>
</svg>
