<svg width="14" height="14" viewBox="0 0 14 14" fill="none" xmlns="http://www.w3.org/2000/svg">
<g clip-path="url(#clip0_2526_3685)">
<path d="M6.41675 2.33333H2.33341C2.024 2.33333 1.72725 2.45624 1.50846 2.67504C1.28966 2.89383 1.16675 3.19058 1.16675 3.49999V11.6667C1.16675 11.9761 1.28966 12.2728 1.50846 12.4916C1.72725 12.7104 2.024 12.8333 2.33341 12.8333H10.5001C10.8095 12.8333 11.1062 12.7104 11.325 12.4916C11.5438 12.2728 11.6667 11.9761 11.6667 11.6667V7.58333" stroke="#FFC400" stroke-width="1.2" stroke-linecap="round" stroke-linejoin="round"/>
<path d="M10.7917 1.45834C11.0238 1.22627 11.3386 1.0959 11.6667 1.0959C11.9949 1.0959 12.3097 1.22627 12.5417 1.45834C12.7738 1.6904 12.9042 2.00515 12.9042 2.33334C12.9042 2.66153 12.7738 2.97627 12.5417 3.20834L7.00008 8.75L4.66675 9.33334L5.25008 7L10.7917 1.45834Z" stroke="#FFC400" stroke-width="1.2" stroke-linecap="round" stroke-linejoin="round"/>
</g>
<defs>
<clipPath id="clip0_2526_3685">
<rect width="14" height="14" fill="white"/>
</clipPath>
</defs>
</svg>
