<svg width="16" height="15" viewBox="0 0 16 15" fill="none" xmlns="http://www.w3.org/2000/svg">
<g clip-path="url(#clip0_241_917)">
<path d="M14.1523 13.125H4.19141C3.80291 13.125 3.43032 12.9604 3.15561 12.6674C2.88089 12.3743 2.72656 11.9769 2.72656 11.5625V0.9375C2.72656 0.68886 2.63396 0.450403 2.46914 0.274587C2.30431 0.098772 2.08076 0 1.84766 0C1.61456 0 1.391 0.098772 1.22618 0.274587C1.06135 0.450403 0.96875 0.68886 0.96875 0.9375L0.96875 11.5625C0.969681 12.4739 1.30951 13.3476 1.91367 13.9921C2.51784 14.6365 3.33699 14.999 4.19141 15H14.1523C14.3854 15 14.609 14.9012 14.7738 14.7254C14.9387 14.5496 15.0312 14.3111 15.0312 14.0625C15.0312 13.8139 14.9387 13.5754 14.7738 13.3996C14.609 13.2238 14.3854 13.125 14.1523 13.125Z" fill="#FFC400"/>
<path d="M14.1523 2.48511H12.3441C12.2283 2.48513 12.115 2.5218 12.0187 2.59048C11.9223 2.65916 11.8473 2.75676 11.8029 2.87095C11.7586 2.98514 11.747 3.11078 11.7696 3.232C11.7922 3.35322 11.848 3.46458 11.9299 3.55198L12.3594 4.00948L10.2576 6.25011C10.2304 6.27921 10.1981 6.3023 10.1625 6.31805C10.1269 6.33381 10.0887 6.34192 10.0502 6.34192C10.0117 6.34192 9.9735 6.33381 9.93791 6.31805C9.90232 6.3023 9.86999 6.27921 9.84277 6.25011L9.74317 6.14386C9.35256 5.74584 8.83316 5.52374 8.29297 5.52374C7.75278 5.52374 7.23338 5.74584 6.84278 6.14386L4.44044 8.70636C4.35649 8.79284 4.28954 8.89629 4.24347 9.01067C4.19741 9.12504 4.17317 9.24806 4.17215 9.37254C4.17114 9.49703 4.19338 9.62047 4.23757 9.73569C4.28176 9.85091 4.34702 9.95558 4.42954 10.0436C4.51207 10.1316 4.6102 10.2012 4.71821 10.2484C4.82623 10.2955 4.94196 10.3192 5.05866 10.3182C5.17536 10.3171 5.29069 10.2912 5.39792 10.2421C5.50515 10.1929 5.60213 10.1215 5.68321 10.032L8.08555 7.46948C8.11276 7.44038 8.14509 7.41729 8.18069 7.40154C8.21628 7.38578 8.25444 7.37767 8.29297 7.37767C8.33151 7.37767 8.36966 7.38578 8.40526 7.40154C8.44085 7.41729 8.47318 7.44038 8.50039 7.46948L8.6 7.57573C8.99074 7.97347 9.51009 8.19538 10.0502 8.19538C10.5903 8.19538 11.1097 7.97347 11.5004 7.57573L13.6016 5.33511L14.0305 5.79323C14.1124 5.88083 14.2168 5.94052 14.3306 5.96475C14.4443 5.98898 14.5622 5.97665 14.6694 5.92933C14.7766 5.88201 14.8682 5.80183 14.9326 5.69894C14.997 5.59605 15.0313 5.47508 15.0312 5.35136V3.42261C15.0312 3.17397 14.9386 2.93551 14.7738 2.75969C14.609 2.58388 14.3854 2.48511 14.1523 2.48511Z" fill="#FFC400"/>
</g>
<defs>
<clipPath id="clip0_241_917">
<rect width="14.0625" height="15" fill="white" transform="translate(0.96875)"/>
</clipPath>
</defs>
</svg>
