<svg width="20" height="19" viewBox="0 0 20 19" fill="none" xmlns="http://www.w3.org/2000/svg">
<g clip-path="url(#clip0_140_1247)">
<path d="M9.54639 0C7.66747 0 5.83074 0.557165 4.26847 1.60104C2.70621 2.64491 1.48857 4.12861 0.769535 5.86451C0.0505029 7.60041 -0.137629 9.51054 0.228931 11.3534C0.59549 13.1962 1.50028 14.8889 2.82888 16.2175C4.15748 17.5461 5.85021 18.4509 7.69303 18.8175C9.53585 19.184 11.446 18.9959 13.1819 18.2769C14.9178 17.5578 16.4015 16.3402 17.4454 14.7779C18.4892 13.2157 19.0464 11.3789 19.0464 9.5C19.0437 6.98128 18.0419 4.5665 16.2609 2.78549C14.4799 1.00449 12.0651 0.00272419 9.54639 0ZM9.54639 17.4167C7.98062 17.4167 6.45002 16.9524 5.14813 16.0825C3.84624 15.2126 2.83154 13.9762 2.23234 12.5296C1.63315 11.083 1.47637 9.49122 1.78184 7.95554C2.08731 6.41985 2.8413 5.00924 3.94846 3.90207C5.05563 2.79491 6.46624 2.04092 8.00193 1.73545C9.53761 1.42998 11.1294 1.58676 12.576 2.18595C14.0225 2.78515 15.259 3.79985 16.1289 5.10174C16.9988 6.40363 17.4631 7.93423 17.4631 9.5C17.4608 11.5989 16.6259 13.6112 15.1418 15.0954C13.6576 16.5795 11.6453 17.4144 9.54639 17.4167Z" fill="#888888"/>
<path d="M10.1141 4.00832C9.65752 3.92514 9.18829 3.94331 8.73956 4.06155C8.29082 4.17979 7.87356 4.39521 7.5173 4.69256C7.16104 4.98991 6.87448 5.36193 6.67791 5.78229C6.48134 6.20264 6.37955 6.66106 6.37976 7.12511C6.37976 7.33507 6.46317 7.53644 6.61163 7.6849C6.7601 7.83337 6.96146 7.91678 7.17143 7.91678C7.38139 7.91678 7.58275 7.83337 7.73122 7.6849C7.87969 7.53644 7.96309 7.33507 7.96309 7.12511C7.9629 6.89218 8.01409 6.66208 8.11303 6.45121C8.21197 6.24034 8.35622 6.0539 8.53548 5.90518C8.71475 5.75645 8.92462 5.64912 9.15014 5.59082C9.37565 5.53252 9.61125 5.5247 9.84014 5.5679C10.1529 5.62861 10.4404 5.78117 10.666 6.00608C10.8917 6.231 11.0451 6.51806 11.1068 6.83061C11.1691 7.15868 11.1261 7.49805 10.9839 7.8002C10.8417 8.10234 10.6076 8.3518 10.3151 8.5129C9.83077 8.79352 9.43052 9.19889 9.15608 9.68679C8.88164 10.1747 8.74305 10.7272 8.75476 11.2869V11.8751C8.75476 12.0851 8.83817 12.2864 8.98664 12.4349C9.1351 12.5834 9.33646 12.6668 9.54643 12.6668C9.75639 12.6668 9.95775 12.5834 10.1062 12.4349C10.2547 12.2864 10.3381 12.0851 10.3381 11.8751V11.2869C10.3282 11.0114 10.391 10.7382 10.5202 10.4947C10.6495 10.2512 10.8406 10.046 11.0743 9.8999C11.6479 9.58488 12.1098 9.09989 12.3965 8.51164C12.6832 7.92339 12.7806 7.26077 12.6753 6.6149C12.57 5.96903 12.2673 5.37164 11.8086 4.90488C11.35 4.43811 10.758 4.1249 10.1141 4.00832Z" fill="#888888"/>
<path d="M10.3381 14.2499C10.3381 13.8127 9.98365 13.4583 9.54643 13.4583C9.1092 13.4583 8.75476 13.8127 8.75476 14.2499C8.75476 14.6871 9.1092 15.0416 9.54643 15.0416C9.98365 15.0416 10.3381 14.6871 10.3381 14.2499Z" fill="#888888"/>
</g>
<defs>
<clipPath id="clip0_140_1247">
<rect width="19" height="19" fill="white" transform="translate(0.0463867)"/>
</clipPath>
</defs>
</svg>
