<svg width="15" height="16" viewBox="0 0 15 16" fill="none" xmlns="http://www.w3.org/2000/svg">
<g clip-path="url(#clip0_1571_10)">
<path d="M14.0625 9.87216C13.8138 9.87216 13.5754 9.97093 13.3996 10.1467C13.2238 10.3226 13.125 10.561 13.125 10.8097V11.7472C13.125 12.1616 12.9604 12.559 12.6673 12.852C12.3743 13.145 11.9769 13.3097 11.5625 13.3097H10.625C10.3764 13.3097 10.1379 13.4084 9.96209 13.5842C9.78627 13.7601 9.6875 13.9985 9.6875 14.2472C9.6875 14.4958 9.78627 14.7343 9.96209 14.9101C10.1379 15.0859 10.3764 15.1847 10.625 15.1847H11.5625C12.4739 15.1837 13.3476 14.8212 13.9921 14.1767C14.6365 13.5323 14.999 12.6585 15 11.7472V10.8097C15 10.561 14.9012 10.3226 14.7254 10.1467C14.5496 9.97093 14.3111 9.87216 14.0625 9.87216Z" fill="#888888"/>
<path d="M4.375 0.18457H3.4375C2.52612 0.185563 1.65236 0.548046 1.00792 1.19249C0.363476 1.83693 0.000992606 2.71069 0 3.62207L0 4.55957C0 4.80821 0.098772 5.04667 0.274587 5.22248C0.450403 5.3983 0.68886 5.49707 0.9375 5.49707C1.18614 5.49707 1.4246 5.3983 1.60041 5.22248C1.77623 5.04667 1.875 4.80821 1.875 4.55957V3.62207C1.875 3.20767 2.03962 2.81024 2.33265 2.51722C2.62567 2.22419 3.0231 2.05957 3.4375 2.05957H4.375C4.62364 2.05957 4.8621 1.9608 5.03791 1.78498C5.21373 1.60917 5.3125 1.37071 5.3125 1.12207C5.3125 0.87343 5.21373 0.634973 5.03791 0.459158C4.8621 0.283342 4.62364 0.18457 4.375 0.18457V0.18457Z" fill="#888888"/>
<path d="M4.375 13.3097H3.4375C3.0231 13.3097 2.62567 13.145 2.33265 12.852C2.03962 12.559 1.875 12.1616 1.875 11.7472V10.8097C1.875 10.561 1.77623 10.3226 1.60041 10.1467C1.4246 9.97093 1.18614 9.87216 0.9375 9.87216C0.68886 9.87216 0.450403 9.97093 0.274587 10.1467C0.098772 10.3226 0 10.561 0 10.8097L0 11.7472C0.000992606 12.6585 0.363476 13.5323 1.00792 14.1767C1.65236 14.8212 2.52612 15.1837 3.4375 15.1847H4.375C4.62364 15.1847 4.8621 15.0859 5.03791 14.9101C5.21373 14.7343 5.3125 14.4958 5.3125 14.2472C5.3125 13.9985 5.21373 13.7601 5.03791 13.5842C4.8621 13.4084 4.62364 13.3097 4.375 13.3097Z" fill="#888888"/>
<path d="M11.5625 0.18457H10.625C10.3764 0.18457 10.1379 0.283342 9.96209 0.459158C9.78627 0.634973 9.6875 0.87343 9.6875 1.12207C9.6875 1.37071 9.78627 1.60917 9.96209 1.78498C10.1379 1.9608 10.3764 2.05957 10.625 2.05957H11.5625C11.9769 2.05957 12.3743 2.22419 12.6673 2.51722C12.9604 2.81024 13.125 3.20767 13.125 3.62207V4.55957C13.125 4.80821 13.2238 5.04667 13.3996 5.22248C13.5754 5.3983 13.8138 5.49707 14.0625 5.49707C14.3111 5.49707 14.5496 5.3983 14.7254 5.22248C14.9012 5.04667 15 4.80821 15 4.55957V3.62207C14.999 2.71069 14.6365 1.83693 13.9921 1.19249C13.3476 0.548046 12.4739 0.185563 11.5625 0.18457V0.18457Z" fill="#888888"/>
</g>
<defs>
<clipPath id="clip0_1571_10">
<rect width="15" height="15" fill="white" transform="translate(0 0.18457)"/>
</clipPath>
</defs>
</svg>
