<svg width="28" height="29" viewBox="0 0 28 29" fill="none" xmlns="http://www.w3.org/2000/svg">
<rect x="0.5" y="0.861328" width="27" height="27" rx="9.5" stroke="white"/>
<path d="M13.9999 7.69464C13.1244 7.69464 12.2575 7.86708 11.4487 8.20211C10.6399 8.53714 9.90492 9.02821 9.28587 9.64726C8.03562 10.8975 7.33324 12.5932 7.33324 14.3613C7.32742 15.9007 7.86044 17.3937 8.83991 18.5813L7.50658 19.9146C7.41407 20.0084 7.35141 20.1274 7.32649 20.2568C7.30158 20.3861 7.31552 20.5199 7.36658 20.6413C7.42195 20.7613 7.51171 20.8621 7.62448 20.9309C7.73724 20.9997 7.86791 21.0335 7.99991 21.028H13.9999C15.768 21.028 17.4637 20.3256 18.714 19.0754C19.9642 17.8251 20.6666 16.1294 20.6666 14.3613C20.6666 12.5932 19.9642 10.8975 18.714 9.64726C17.4637 8.39702 15.768 7.69464 13.9999 7.69464ZM13.9999 19.6946H9.60658L10.2266 19.0746C10.3507 18.9497 10.4204 18.7808 10.4204 18.6046C10.4204 18.4285 10.3507 18.2596 10.2266 18.1346C9.35364 17.2627 8.81003 16.115 8.68837 14.8872C8.56672 13.6593 8.87454 12.4273 9.5594 11.401C10.2443 10.3747 11.2638 9.61755 12.4443 9.25862C13.6247 8.8997 14.8932 8.96118 16.0334 9.43258C17.1736 9.90399 18.1151 10.7562 18.6975 11.8439C19.2799 12.9316 19.4672 14.1877 19.2273 15.398C18.9875 16.6083 18.3355 17.698 17.3823 18.4815C16.4291 19.2649 15.2338 19.6937 13.9999 19.6946Z" fill="white"/>
</svg>
