<svg width="9" height="10" viewBox="0 0 9 10" fill="none" xmlns="http://www.w3.org/2000/svg">
<path d="M4.92578 6.37549H0.196777V5.37891H4.92578C5.38704 5.37891 5.76579 5.30485 6.06201 5.15674C6.35824 5.00863 6.57617 4.79915 6.71582 4.52832C6.8597 4.25749 6.93164 3.93799 6.93164 3.56982C6.93164 3.26937 6.86393 2.98161 6.72852 2.70654C6.59733 2.43148 6.38363 2.20508 6.0874 2.02734C5.79541 1.84961 5.4082 1.76074 4.92578 1.76074H2.72949V10H1.51074V0.757812H4.92578C5.62402 0.757812 6.21224 0.878418 6.69043 1.11963C7.16862 1.35661 7.53044 1.68669 7.77588 2.10986C8.02555 2.52881 8.15039 3.01123 8.15039 3.55713C8.15039 4.14958 8.02555 4.65739 7.77588 5.08057C7.53044 5.49951 7.16862 5.82113 6.69043 6.04541C6.21224 6.26546 5.62402 6.37549 4.92578 6.37549ZM4.84961 7.24512V8.24805H0.196777V7.24512H4.84961Z" fill="#888888"/>
</svg>
