<svg width="16" height="15" viewBox="0 0 16 15" fill="none" xmlns="http://www.w3.org/2000/svg">
<path d="M8 0C6.51664 0 5.0666 0.439867 3.83323 1.26398C2.59986 2.08809 1.63856 3.25943 1.07091 4.62987C0.50325 6.00032 0.354725 7.50832 0.644114 8.96318C0.933503 10.418 1.64781 11.7544 2.6967 12.8033C3.7456 13.8522 5.08197 14.5665 6.53683 14.8559C7.99168 15.1453 9.49968 14.9968 10.8701 14.4291C12.2406 13.8614 13.4119 12.9001 14.236 11.6668C15.0601 10.4334 15.5 8.98336 15.5 7.5C15.4979 5.51154 14.707 3.60513 13.3009 2.19907C11.8949 0.793018 9.98847 0.00215068 8 0V0ZM13.2594 5.5225L8.57188 6.43375C8.54438 6.38063 8.51375 6.32938 8.49 6.27438L6.65438 2.04438C7.99045 1.70761 9.40386 1.87644 10.623 2.51844C11.8422 3.16043 12.7811 4.23031 13.2594 5.5225ZM2.375 7.5C2.37573 6.56406 2.61015 5.64312 3.05698 4.82073C3.50381 3.99834 4.14891 3.30053 4.93375 2.79063L6.77 7.02063C7.07613 7.72707 7.55733 8.34378 8.16813 8.8125L11.8275 11.6131C11.0273 12.3619 10.0255 12.8602 8.94561 13.0465C7.8657 13.2329 6.75485 13.0992 5.74999 12.662C4.74512 12.2247 3.89015 11.503 3.29045 10.5858C2.69075 9.66853 2.37253 8.59588 2.375 7.5ZM12.9713 10.125L10.225 8.0225L13.6181 7.36313C13.6181 7.40875 13.625 7.45375 13.625 7.5C13.6253 8.41533 13.4008 9.31674 12.9713 10.125Z" fill="#FFC400"/>
</svg>
