<svg width="15" height="16" viewBox="0 0 15 16" fill="none" xmlns="http://www.w3.org/2000/svg">
<path d="M10.9375 0.18457H4.0625C3.15117 0.185728 2.2775 0.548264 1.6331 1.19267C0.988693 1.83707 0.626158 2.71074 0.625 3.62207V12.9796C0.62547 13.4173 0.757252 13.8448 1.0033 14.2068C1.24936 14.5689 1.59836 14.8488 2.00519 15.0103C2.41201 15.1718 2.85795 15.2076 3.28533 15.113C3.71271 15.0184 4.10187 14.7977 4.4025 14.4796L7.4725 11.2296L10.6056 14.5108C10.9072 14.8266 11.2964 15.0448 11.7231 15.1375C12.1497 15.2303 12.5944 15.1931 12.9998 15.031C13.4052 14.8689 13.7528 14.5891 13.9979 14.2278C14.243 13.8664 14.3743 13.44 14.375 13.0033V3.62207C14.3738 2.71074 14.0113 1.83707 13.3669 1.19267C12.7225 0.548264 11.8488 0.185728 10.9375 0.18457V0.18457ZM12.5 13.0033C12.4999 13.0656 12.4811 13.1265 12.4462 13.1781C12.4112 13.2297 12.3616 13.2696 12.3037 13.2928C12.2459 13.316 12.1824 13.3213 12.1215 13.3082C12.0606 13.295 12.005 13.2639 11.9619 13.2189L8.14937 9.22457C8.06153 9.13259 7.95589 9.05945 7.83888 9.00959C7.72187 8.95974 7.59594 8.93421 7.46875 8.93457C7.34161 8.93495 7.21587 8.96119 7.09918 9.01168C6.9825 9.06218 6.87731 9.13589 6.79 9.22832L3.04 13.1939C2.99815 13.2412 2.94243 13.274 2.88081 13.2877C2.81918 13.3014 2.7548 13.2953 2.69688 13.2702C2.6372 13.2493 2.58584 13.2098 2.55038 13.1574C2.51492 13.1051 2.49726 13.0427 2.5 12.9796V3.62207C2.5 3.20767 2.66462 2.81024 2.95765 2.51722C3.25067 2.22419 3.6481 2.05957 4.0625 2.05957H10.9375C11.3519 2.05957 11.7493 2.22419 12.0424 2.51722C12.3354 2.81024 12.5 3.20767 12.5 3.62207V13.0033Z" fill="#888888"/>
</svg>
