<svg width="24" height="24" viewBox="0 0 24 24" fill="none" xmlns="http://www.w3.org/2000/svg">
<g clip-path="url(#clip0_1064_4313)">
<path d="M10.7 2.65917C10.4188 2.06347 9.9733 1.5598 9.41551 1.20701C8.85771 0.85422 8.21068 0.666882 7.55 0.666882C6.88932 0.666882 6.24229 0.85422 5.68449 1.20701C5.1267 1.5598 4.68118 2.06347 4.4 2.65917H1.5C1.10218 2.65917 0.720644 2.81663 0.43934 3.09692C0.158035 3.37721 0 3.75737 0 4.15376H0C0 4.55015 0.158035 4.9303 0.43934 5.21059C0.720644 5.49088 1.10218 5.64835 1.5 5.64835H4.395C4.67618 6.24405 5.1217 6.74772 5.67949 7.1005C6.23729 7.45329 6.88432 7.64063 7.545 7.64063C8.20568 7.64063 8.85271 7.45329 9.41051 7.1005C9.9683 6.74772 10.4138 6.24405 10.695 5.64835H22.5C22.8978 5.64835 23.2794 5.49088 23.5607 5.21059C23.842 4.9303 24 4.55015 24 4.15376C24 3.75737 23.842 3.37721 23.5607 3.09692C23.2794 2.81663 22.8978 2.65917 22.5 2.65917H10.7Z" fill="#888888"/>
<path d="M16.455 8.512C15.7944 8.51317 15.1477 8.70104 14.5899 9.05377C14.0321 9.40651 13.5863 9.90966 13.304 10.5048H1.5C1.10218 10.5048 0.720644 10.6623 0.43934 10.9425C0.158035 11.2228 0 11.603 0 11.9994H0C0 12.3958 0.158035 12.7759 0.43934 13.0562C0.720644 13.3365 1.10218 13.494 1.5 13.494H13.3C13.5812 14.0897 14.0267 14.5933 14.5845 14.9461C15.1423 15.2989 15.7893 15.4863 16.45 15.4863C17.1107 15.4863 17.7577 15.2989 18.3155 14.9461C18.8733 14.5933 19.3188 14.0897 19.6 13.494H22.5C22.8978 13.494 23.2794 13.3365 23.5607 13.0562C23.842 12.7759 24 12.3958 24 11.9994C24 11.603 23.842 11.2228 23.5607 10.9425C23.2794 10.6623 22.8978 10.5048 22.5 10.5048H19.605C19.3228 9.90981 18.8771 9.40677 18.3195 9.05404C17.762 8.70131 17.1154 8.51336 16.455 8.512V8.512Z" fill="#888888"/>
<path d="M7.545 16.3586C6.88455 16.36 6.23804 16.5479 5.68048 16.9007C5.12292 17.2534 4.67718 17.7564 4.395 18.3514H1.5C1.10218 18.3514 0.720644 18.5089 0.43934 18.7892C0.158035 19.0694 0 19.4496 0 19.846H0C0 20.2424 0.158035 20.6225 0.43934 20.9028C0.720644 21.1831 1.10218 21.3406 1.5 21.3406H4.395C4.67618 21.9363 5.1217 22.4399 5.67949 22.7927C6.23729 23.1455 6.88432 23.3329 7.545 23.3329C8.20568 23.3329 8.85271 23.1455 9.41051 22.7927C9.9683 22.4399 10.4138 21.9363 10.695 21.3406H22.5C22.8978 21.3406 23.2794 21.1831 23.5607 20.9028C23.842 20.6225 24 20.2424 24 19.846C24 19.4496 23.842 19.0694 23.5607 18.7892C23.2794 18.5089 22.8978 18.3514 22.5 18.3514H10.7C10.4175 17.7557 9.97094 17.2521 9.41241 16.8993C8.85388 16.5465 8.2063 16.359 7.545 16.3586V16.3586Z" fill="#888888"/>
</g>
<defs>
<clipPath id="clip0_1064_4313">
<rect width="24" height="23.9135" fill="white" transform="translate(0 0.0432739)"/>
</clipPath>
</defs>
</svg>
