<svg width="15" height="15" viewBox="0 0 15 15" fill="none" xmlns="http://www.w3.org/2000/svg">
<g clip-path="url(#clip0_251_1974)">
<path d="M9.06254 15C8.89271 15.0003 8.72606 14.954 8.58066 14.8663L5.45566 12.9913C5.31678 12.908 5.20181 12.7903 5.12196 12.6494C5.04212 12.5085 5.00011 12.3494 5.00004 12.1875V8.95938L1.27129 4.39688C0.851442 3.91526 0.621668 3.29704 0.625037 2.65813C0.625864 1.9534 0.906181 1.27778 1.4045 0.77946C1.90281 0.281144 2.57844 0.000827046 3.28316 0L11.7169 0C12.2293 0.000186526 12.7307 0.148425 13.1608 0.42688C13.591 0.705334 13.9314 1.10214 14.1414 1.56956C14.3513 2.03698 14.4216 2.55509 14.344 3.06156C14.2664 3.56803 14.0441 4.04128 13.7038 4.42438L10 8.98875V14.0625C10 14.3111 9.90126 14.5496 9.72545 14.7254C9.54963 14.9012 9.31118 15 9.06254 15V15ZM6.87504 11.6563L8.12504 12.4063V8.65625C8.12487 8.44097 8.19881 8.2322 8.33441 8.065L12.275 3.21063C12.4169 3.06134 12.4972 2.86405 12.5 2.65813C12.4997 2.45053 12.4171 2.25153 12.2703 2.10474C12.1235 1.95794 11.9245 1.87533 11.7169 1.875H3.28316C3.13222 1.87515 2.98452 1.91888 2.85783 2.00095C2.73114 2.08301 2.63085 2.19992 2.569 2.33761C2.50715 2.4753 2.48638 2.62793 2.50918 2.77714C2.53198 2.92636 2.59739 3.06581 2.69754 3.17875L6.66379 8.03188C6.80047 8.19932 6.8751 8.40885 6.87504 8.625V11.6563Z" fill="#FFC400"/>
</g>
<defs>
<clipPath id="clip0_251_1974">
<rect width="15" height="15" fill="white"/>
</clipPath>
</defs>
</svg>
