<svg width="14" height="14" viewBox="0 0 14 14" fill="none" xmlns="http://www.w3.org/2000/svg">
<path d="M8.80709 7.36972L7.58317 6.66333V4.08334C7.58317 3.92863 7.52171 3.78026 7.41232 3.67086C7.30292 3.56146 7.15455 3.50001 6.99984 3.50001C6.84513 3.50001 6.69676 3.56146 6.58736 3.67086C6.47796 3.78026 6.41651 3.92863 6.41651 4.08334V7C6.41648 7.10242 6.44342 7.20304 6.49462 7.29174C6.54582 7.38044 6.61947 7.45409 6.70817 7.50529L8.22375 8.38029C8.29011 8.41864 8.36338 8.44354 8.43936 8.45357C8.51534 8.46359 8.59256 8.45855 8.66659 8.43873C8.74062 8.4189 8.81003 8.38468 8.87083 8.33803C8.93164 8.29138 8.98265 8.2332 9.02097 8.16682C9.05928 8.10044 9.08414 8.02717 9.09413 7.95118C9.10412 7.87519 9.09904 7.79798 9.07917 7.72396C9.05931 7.64993 9.02506 7.58055 8.97837 7.51977C8.93169 7.45898 8.87348 7.408 8.80709 7.36972ZM6.99984 1.16667C5.84612 1.16667 4.7183 1.50879 3.75901 2.14977C2.79973 2.79074 2.05205 3.70178 1.61054 4.76768C1.16903 5.83359 1.05351 7.00648 1.27859 8.13803C1.50367 9.26959 2.05924 10.309 2.87505 11.1248C3.69086 11.9406 4.73026 12.4962 5.86181 12.7213C6.99337 12.9463 8.16626 12.8308 9.23216 12.3893C10.2981 11.9478 11.2091 11.2001 11.8501 10.2408C12.4911 9.28154 12.8332 8.15373 12.8332 7C12.8315 5.45344 12.2163 3.9707 11.1227 2.87712C10.0291 1.78353 8.54641 1.16839 6.99984 1.16667ZM6.99984 11.6667C6.07686 11.6667 5.17461 11.393 4.40718 10.8802C3.63975 10.3674 3.04161 9.63858 2.6884 8.78586C2.33519 7.93314 2.24278 6.99483 2.42284 6.08958C2.60291 5.18434 3.04736 4.35282 3.70001 3.70017C4.35265 3.04753 5.18417 2.60307 6.08942 2.42301C6.99466 2.24294 7.93297 2.33536 8.7857 2.68857C9.63842 3.04178 10.3673 3.63991 10.88 4.40734C11.3928 5.17477 11.6665 6.07703 11.6665 7C11.6651 8.23725 11.173 9.42341 10.2981 10.2983C9.42324 11.1731 8.23708 11.6653 6.99984 11.6667Z" fill="#FFC400"/>
</svg>
