<svg width="11" height="14" viewBox="0 0 11 14" fill="none" xmlns="http://www.w3.org/2000/svg">
<path d="M9.7151 7.40351L5.82906 11.7544C4.76353 12.9474 3.07123 12.9474 2.06838 11.7544C1.00285 10.5614 1.00285 8.66667 2.06838 7.54386L7.08262 1.92982C7.7094 1.29825 8.64957 1.29825 9.27635 1.92982C9.90313 2.63158 9.90313 3.75439 9.27635 4.38597L4.95157 9.22807C4.76353 9.4386 4.45014 9.4386 4.26211 9.22807C4.07407 9.01754 4.07407 8.66667 4.26211 8.45614L7.45869 4.87719C7.7094 4.59649 7.7094 4.17544 7.45869 3.89474C7.20798 3.61404 6.83191 3.61404 6.5812 3.89474L3.38462 7.54386C2.69516 8.31579 2.69516 9.50877 3.38462 10.2807C4.07407 10.9825 5.1396 10.9825 5.82906 10.2807L10.1538 5.4386C11.2821 4.17544 11.2821 2.21053 10.1538 0.947368C9.02564 -0.31579 7.27065 -0.31579 6.14245 0.947368L1.12821 6.5614C0.376068 7.40351 0 8.52632 0 9.64912C0 12.1053 1.75499 14 3.94872 14C5.01425 14 5.95442 13.5088 6.70655 12.7368L10.5926 8.38597C10.8433 8.10526 10.8433 7.68421 10.5926 7.40351C10.3419 7.12281 9.96581 7.12281 9.7151 7.40351Z" fill="#FFC400"/>
</svg>
