<svg width="15" height="15" viewBox="0 0 15 15" fill="none" xmlns="http://www.w3.org/2000/svg">
<path d="M11.5625 0H3.4375C2.52612 0.00108284 1.65236 0.396519 1.00792 1.09955C0.363476 1.80257 0.000992606 2.75577 0 3.75L0 11.25C0.000992606 12.2442 0.363476 13.1974 1.00792 13.9005C1.65236 14.6035 2.52612 14.9989 3.4375 15H11.5625C12.4739 14.9989 13.3476 14.6035 13.9921 13.9005C14.6365 13.1974 14.999 12.2442 15 11.25V3.75C14.999 2.75577 14.6365 1.80257 13.9921 1.09955C13.3476 0.396519 12.4739 0.00108284 11.5625 0ZM11.5625 2.04545C11.9415 2.04683 12.3069 2.19992 12.5894 2.47568L8.52687 6.9075C8.25095 7.195 7.88406 7.35542 7.5025 7.35542C7.12094 7.35542 6.75405 7.195 6.47812 6.9075L2.41563 2.47568C2.69678 2.20116 3.06019 2.04816 3.4375 2.04545H11.5625ZM11.5625 12.9545H3.4375C3.0231 12.9545 2.62567 12.775 2.33265 12.4553C2.03962 12.1356 1.875 11.7021 1.875 11.25V4.78432L5.14937 8.35636C5.45797 8.69316 5.82438 8.96034 6.22765 9.14262C6.63092 9.3249 7.06317 9.41872 7.49969 9.41872C7.93621 9.41872 8.36845 9.3249 8.77172 9.14262C9.175 8.96034 9.5414 8.69316 9.85 8.35636L13.125 4.78432V11.25C13.125 11.7021 12.9604 12.1356 12.6674 12.4553C12.3743 12.775 11.9769 12.9545 11.5625 12.9545Z" fill="#888888"/>
</svg>
