<svg width="10" height="10" viewBox="0 0 10 10" fill="none" xmlns="http://www.w3.org/2000/svg">
<g clip-path="url(#clip0_1292_4974)">
<path d="M9.33664 0.127165C9.20475 0.0270839 9.03854 -0.0165779 8.87449 0.0057639C8.71045 0.0281057 8.56196 0.114626 8.46164 0.246332L4.99998 4.80008L1.53914 0.246332C1.4388 0.114387 1.29016 0.0277058 1.12591 0.00535774C0.961655 -0.0169903 0.795254 0.0268252 0.663309 0.127165C0.531364 0.227506 0.444683 0.376151 0.422335 0.540402C0.399987 0.704653 0.443802 0.871054 0.544142 1.003L3.89831 5.41633H2.70831C2.54255 5.41633 2.38358 5.48218 2.26637 5.59939C2.14916 5.7166 2.08331 5.87557 2.08331 6.04133C2.08331 6.20709 2.14916 6.36606 2.26637 6.48327C2.38358 6.60048 2.54255 6.66633 2.70831 6.66633H4.37498V7.49967H2.70831C2.54255 7.49967 2.38358 7.56551 2.26637 7.68272C2.14916 7.79993 2.08331 7.95891 2.08331 8.12467C2.08331 8.29043 2.14916 8.4494 2.26637 8.56661C2.38358 8.68382 2.54255 8.74967 2.70831 8.74967H4.37498V9.37467C4.37498 9.54043 4.44082 9.6994 4.55803 9.81661C4.67524 9.93382 4.83422 9.99967 4.99998 9.99967C5.16574 9.99967 5.32471 9.93382 5.44192 9.81661C5.55913 9.6994 5.62498 9.54043 5.62498 9.37467V8.74967H7.29164C7.4574 8.74967 7.61637 8.68382 7.73358 8.56661C7.85079 8.4494 7.91664 8.29043 7.91664 8.12467C7.91664 7.95891 7.85079 7.79993 7.73358 7.68272C7.61637 7.56551 7.4574 7.49967 7.29164 7.49967H5.62498V6.66633H7.29164C7.4574 6.66633 7.61637 6.60048 7.73358 6.48327C7.85079 6.36606 7.91664 6.20709 7.91664 6.04133C7.91664 5.87557 7.85079 5.7166 7.73358 5.59939C7.61637 5.48218 7.4574 5.41633 7.29164 5.41633H6.10164L9.45581 1.003C9.50549 0.937667 9.54183 0.863188 9.56273 0.783815C9.58363 0.704443 9.58869 0.62173 9.57762 0.540401C9.56656 0.459072 9.53958 0.380719 9.49823 0.309816C9.45689 0.238912 9.40198 0.176848 9.33664 0.127165Z" fill="#888888"/>
</g>
<defs>
<clipPath id="clip0_1292_4974">
<rect width="10" height="10" fill="white"/>
</clipPath>
</defs>
</svg>
