<svg width="12" height="12" viewBox="0 0 12 12" fill="none" xmlns="http://www.w3.org/2000/svg">
<g clip-path="url(#clip0_3414_4380)">
<path d="M5.5 2H2C1.73478 2 1.48043 2.10536 1.29289 2.29289C1.10536 2.48043 1 2.73478 1 3V10C1 10.2652 1.10536 10.5196 1.29289 10.7071C1.48043 10.8946 1.73478 11 2 11H9C9.26522 11 9.51957 10.8946 9.70711 10.7071C9.89464 10.5196 10 10.2652 10 10V6.5" stroke="#FFC400" stroke-width="1.2" stroke-linecap="round" stroke-linejoin="round"/>
<path d="M9.25 1.24999C9.44891 1.05108 9.7187 0.939331 10 0.939331C10.2813 0.939331 10.5511 1.05108 10.75 1.24999C10.9489 1.4489 11.0607 1.71869 11.0607 1.99999C11.0607 2.2813 10.9489 2.55108 10.75 2.74999L6 7.49999L4 7.99999L4.5 5.99999L9.25 1.24999Z" stroke="#FFC400" stroke-width="1.2" stroke-linecap="round" stroke-linejoin="round"/>
</g>
<defs>
<clipPath id="clip0_3414_4380">
<rect width="12" height="12" fill="white"/>
</clipPath>
</defs>
</svg>
