<svg width="20" height="20" viewBox="0 0 20 20" fill="none" xmlns="http://www.w3.org/2000/svg">
<path d="M18.3337 15.8333C18.3337 16.2754 18.1581 16.6993 17.8455 17.0118C17.5329 17.3244 17.109 17.5 16.667 17.5H3.33366C2.89163 17.5 2.46771 17.3244 2.15515 17.0118C1.84259 16.6993 1.66699 16.2754 1.66699 15.8333V4.16667C1.66699 3.72464 1.84259 3.30072 2.15515 2.98816C2.46771 2.67559 2.89163 2.5 3.33366 2.5H7.50032L9.16699 5H16.667C17.109 5 17.5329 5.17559 17.8455 5.48816C18.1581 5.80072 18.3337 6.22464 18.3337 6.66667V15.8333Z" stroke="white" stroke-width="1.5" stroke-linecap="round" stroke-linejoin="round"/>
<path d="M10 9.16669V14.1667" stroke="white" stroke-width="1.5" stroke-linecap="round" stroke-linejoin="round"/>
<path d="M7.5 11.6667H12.5" stroke="white" stroke-width="1.5" stroke-linecap="round" stroke-linejoin="round"/>
</svg>
