<svg width="8" height="8" viewBox="0 0 8 8" fill="none" xmlns="http://www.w3.org/2000/svg">
<path d="M4.70678 3.99998L5.99978 2.70565C6.08373 2.61023 6.1282 2.48643 6.12414 2.35941C6.12009 2.23239 6.06781 2.11168 5.97795 2.02181C5.88808 1.93195 5.76737 1.87968 5.64035 1.87562C5.51333 1.87157 5.38953 1.91603 5.29412 1.99998L3.99978 3.29298L2.70311 1.99598C2.65667 1.94954 2.60153 1.9127 2.54085 1.88756C2.48017 1.86242 2.41513 1.84949 2.34945 1.84949C2.28377 1.84949 2.21873 1.86242 2.15805 1.88756C2.09736 1.9127 2.04223 1.94954 1.99578 1.99598C1.94934 2.04242 1.9125 2.09756 1.88736 2.15824C1.86223 2.21893 1.84929 2.28397 1.84929 2.34965C1.84929 2.41533 1.86223 2.48037 1.88736 2.54105C1.9125 2.60173 1.94934 2.65687 1.99578 2.70331L3.29278 3.99998L1.99978 5.29398C1.94907 5.33931 1.90814 5.39451 1.8795 5.4562C1.85086 5.51789 1.83511 5.58478 1.8332 5.65277C1.8313 5.72076 1.84329 5.78842 1.86844 5.85161C1.89358 5.91481 1.93136 5.97221 1.97945 6.02031C2.02755 6.0684 2.08495 6.10618 2.14815 6.13133C2.21134 6.15647 2.27901 6.16846 2.347 6.16656C2.41498 6.16466 2.48187 6.1489 2.54356 6.12026C2.60525 6.09162 2.66045 6.05069 2.70578 5.99998L3.99978 4.70698L5.29245 5.99998C5.38625 6.09378 5.51346 6.14647 5.64611 6.14647C5.77877 6.14647 5.90598 6.09378 5.99978 5.99998C6.09358 5.90618 6.14628 5.77896 6.14628 5.64631C6.14628 5.51366 6.09358 5.38645 5.99978 5.29265L4.70678 3.99998Z" fill="#FF4E4E"/>
</svg>
