<svg width="8" height="8" viewBox="0 0 8 8" fill="none" xmlns="http://www.w3.org/2000/svg">
<path d="M5.67462 4C6.36461 3.38982 6.82764 2.56397 6.98829 1.657C7.01869 1.45272 7.00464 1.24429 6.94712 1.04594C6.88959 0.847584 6.78993 0.663982 6.65496 0.507667C6.51792 0.348359 6.3481 0.220525 6.1571 0.132907C5.9661 0.0452883 5.75843 -4.72484e-05 5.54829 3.69511e-08H2.46029C2.25019 8.60433e-05 2.04258 0.0455164 1.85165 0.133188C1.66072 0.22086 1.49095 0.348708 1.35396 0.508C1.21886 0.664443 1.11914 0.848214 1.06161 1.04675C1.00408 1.24528 0.990099 1.4539 1.02062 1.65833C1.18051 2.56497 1.64329 3.39053 2.33329 4C1.64354 4.60957 1.181 5.43512 1.02129 6.34167C0.990766 6.5461 1.00475 6.75472 1.06228 6.95325C1.11981 7.15179 1.21953 7.33556 1.35462 7.492C1.49155 7.65121 1.6612 7.779 1.85201 7.86667C2.04282 7.95434 2.2503 7.99982 2.46029 8H5.54829C5.75832 7.99995 5.96586 7.95457 6.15673 7.86695C6.34761 7.77934 6.51733 7.65156 6.65429 7.49233C6.78934 7.33613 6.88904 7.15259 6.94657 6.95427C7.0041 6.75596 7.0181 6.54756 6.98762 6.34333C6.82725 5.43632 6.36445 4.61035 5.67462 4ZM5.89662 6.83967C5.8535 6.88986 5.80006 6.93016 5.73995 6.95783C5.67983 6.9855 5.61446 6.99988 5.54829 7H2.46029C2.39409 6.99995 2.32868 6.98563 2.26851 6.95802C2.20834 6.93041 2.15483 6.89016 2.11162 6.84C2.07025 6.79268 2.03967 6.73692 2.022 6.6766C2.00433 6.61628 1.99999 6.55283 2.00929 6.49067C2.12162 5.74267 2.59129 5.03633 3.40529 4.39267C3.46453 4.34586 3.51241 4.28625 3.54532 4.2183C3.57823 4.15035 3.59533 4.07583 3.59533 4.00033C3.59533 3.92483 3.57823 3.85031 3.54532 3.78236C3.51241 3.71442 3.46453 3.6548 3.40529 3.608C2.59129 2.964 2.12162 2.25767 2.00929 1.50967C1.99999 1.4475 2.00433 1.38406 2.022 1.32373C2.03967 1.26341 2.07025 1.20766 2.11162 1.16033C2.1548 1.11012 2.2083 1.0698 2.26847 1.04213C2.32864 1.01446 2.39406 1.00009 2.46029 1H5.54829C5.61446 1.00012 5.67983 1.0145 5.73995 1.04217C5.80006 1.06984 5.8535 1.11014 5.89662 1.16033C5.93803 1.20745 5.96872 1.26301 5.98656 1.32315C6.0044 1.38329 6.00897 1.44659 5.99996 1.50867C5.88829 2.25367 5.41829 2.96 4.60296 3.60867C4.54408 3.65549 4.49652 3.715 4.46384 3.78276C4.43115 3.85051 4.41418 3.92477 4.41418 4C4.41418 4.07523 4.43115 4.14949 4.46384 4.21724C4.49652 4.285 4.54408 4.34451 4.60296 4.39133C5.41829 5.04 5.88829 5.74633 5.99996 6.49133C6.00911 6.55342 6.0046 6.61675 5.98676 6.67691C5.96891 6.73707 5.93815 6.79262 5.89662 6.83967Z" fill="#5D8EF1"/>
<path d="M4.27909 5.07093L4.18108 4.9926C4.1298 4.95201 4.06632 4.92993 4.00092 4.92993C3.93552 4.92993 3.87204 4.95201 3.82075 4.9926L3.72075 5.07193C3.41673 5.29465 3.17557 5.59231 3.02075 5.93593C3.00315 5.97989 2.9966 6.02749 3.00166 6.07457C3.00673 6.12165 3.02325 6.16677 3.0498 6.20598C3.07635 6.24519 3.1121 6.2773 3.15393 6.29949C3.19577 6.32168 3.2424 6.33327 3.28975 6.33326H4.71075C4.75802 6.33301 4.80451 6.3212 4.84615 6.29883C4.88779 6.27647 4.92332 6.24425 4.94963 6.20498C4.97595 6.16571 4.99223 6.12059 4.99708 6.07357C5.00192 6.02656 4.99517 5.97907 4.97742 5.93526C4.82256 5.59206 4.58209 5.29443 4.27909 5.07093Z" fill="#5D8EF1"/>
</svg>
