<svg width="24" height="24" viewBox="0 0 24 24" fill="none" xmlns="http://www.w3.org/2000/svg">
<g clip-path="url(#clip0_927_5033)">
<path d="M10.6805 24C8.25361 24.0031 5.92228 23.0545 4.18708 21.3579C0.55624 17.5848 0.627139 11.5957 4.34631 7.90962L10.1807 2.07625C12.5645 -0.376192 16.3918 -0.695259 19.1488 1.32863C22.0861 3.58368 22.6391 7.79286 20.384 10.7301C20.2079 10.9595 20.0171 11.1773 19.8129 11.3821L13.7075 17.4875C13.0203 18.2059 12.1084 18.668 11.1228 18.7974C9.78679 18.9438 8.46418 18.4243 7.58492 17.4078C6.2369 15.681 6.38101 13.2218 7.92146 11.6642L12.5759 7.01383C13.1661 6.42378 14.1229 6.42378 14.7131 7.01383C15.3032 7.60406 15.3032 8.56084 14.7131 9.15108L9.91564 13.9496C9.49351 14.372 9.49374 15.0566 9.91616 15.4787C10.3386 15.9008 11.0232 15.9006 11.4453 15.4782L17.6061 9.31838C18.8709 8.08855 19.1048 6.14236 18.1674 4.64787C17.0604 2.94272 14.7808 2.45776 13.0756 3.56474C12.8621 3.70333 12.6636 3.86369 12.4831 4.04327L6.40293 10.1285C4.10475 12.3601 3.80619 15.9454 5.70363 18.5264C7.8141 21.275 11.7532 21.7924 14.5018 19.6819C14.7166 19.517 14.9205 19.3383 15.1122 19.1471L19.9106 14.3496C20.5009 13.7596 21.4576 13.7596 22.0479 14.3496C22.6379 14.9399 22.6379 15.8966 22.0479 16.4869L17.2494 21.2843C15.5083 23.0276 13.1442 24.0049 10.6805 24Z" fill="#888888"/>
</g>
<defs>
<clipPath id="clip0_927_5033">
<rect width="24" height="24" fill="white"/>
</clipPath>
</defs>
</svg>
