<svg width="24" height="24" viewBox="0 0 24 24" fill="none" xmlns="http://www.w3.org/2000/svg">
<g clip-path="url(#clip0_927_5031)">
<path d="M22.9995 1.00243C22.1726 0.16396 20.9667 -0.179818 19.822 0.0965637L4.5362 3.3091C1.63337 3.73865 -0.371604 6.44008 0.0579438 9.34287C0.224935 10.4714 0.75075 11.5162 1.55759 12.3228L3.19633 13.9626C3.27306 14.0383 3.31594 14.1418 3.31533 14.2495V17.2731C3.31754 19.1541 4.84183 20.6784 6.72284 20.6806H9.7464C9.85434 20.6806 9.95792 20.7234 10.0344 20.7996L11.6731 22.4384C12.664 23.4358 14.0116 23.9972 15.4176 23.9981C15.9979 23.9977 16.5744 23.9028 17.1243 23.7172C19.022 23.0869 20.4011 21.4389 20.6868 19.4598L23.8993 4.222C24.188 3.0652 23.8461 1.84194 22.9995 1.00243ZM3.12139 7.82743C3.39313 6.98788 4.12643 6.38164 5.00212 6.27267C5.03746 6.26798 5.07242 6.26198 5.1071 6.25467L18.4272 3.45509L6.31495 15.5603V14.2495C6.31715 13.3452 5.95701 12.4777 5.31511 11.8409L3.67833 10.2021C3.0479 9.58551 2.83081 8.66004 3.12139 7.82743ZM17.7413 18.8939C17.7333 18.9289 17.7283 18.9638 17.7233 18.9988C17.5496 20.2654 16.3822 21.1513 15.1157 20.9777C14.6153 20.9091 14.1511 20.6787 13.7938 20.3217L12.1561 18.6839C11.5189 18.0418 10.6511 17.6817 9.74645 17.6841H8.43564L20.5449 5.5718L17.7413 18.8939Z" fill="#FFC400"/>
</g>
<defs>
<clipPath id="clip0_927_5031">
<rect width="24" height="24" fill="white"/>
</clipPath>
</defs>
</svg>
