<svg width="24" height="24" viewBox="0 0 24 24" fill="none" xmlns="http://www.w3.org/2000/svg">
<g clip-path="url(#clip0_927_4855)">
<path d="M21 15H18C17.2044 15 16.4413 15.3161 15.8787 15.8787C15.3161 16.4413 15 17.2044 15 18V21H4.5C4.10218 21 3.72064 20.842 3.43934 20.5607C3.15804 20.2794 3 19.8978 3 19.5V4.5C3 4.10218 3.15804 3.72064 3.43934 3.43934C3.72064 3.15804 4.10218 3 4.5 3H14.5C14.8978 3 15.2794 2.84196 15.5607 2.56066C15.842 2.27936 16 1.89782 16 1.5C16 1.10218 15.842 0.720644 15.5607 0.43934C15.2794 0.158035 14.8978 0 14.5 0L4.5 0C3.30653 0 2.16193 0.474106 1.31802 1.31802C0.474106 2.16193 0 3.30653 0 4.5L0 19.5C0 20.6935 0.474106 21.8381 1.31802 22.682C2.16193 23.5259 3.30653 24 4.5 24H16.485C17.6781 23.9997 18.8223 23.5257 19.666 22.682L22.682 19.666C23.5257 18.8223 23.9997 17.6781 24 16.485V11.506C24 11.1082 23.842 10.7266 23.5607 10.4453C23.2794 10.164 22.8978 10.006 22.5 10.006C22.1022 10.006 21.7206 10.164 21.4393 10.4453C21.158 10.7266 21 11.1082 21 11.506V15Z" fill="#888888"/>
<path d="M20.9629 0.999855C20.5627 1.01159 20.169 1.10451 19.8058 1.27297C19.4426 1.44143 19.1173 1.68192 18.8499 1.97986L10.7139 11.0729C11.6273 11.206 12.4857 11.5904 13.1934 12.183C13.9011 12.7755 14.4303 13.5531 14.7219 14.4289L23.1219 6.02886C23.6731 5.47638 23.9827 4.7278 23.9827 3.94736C23.9827 3.16691 23.6731 2.41833 23.1219 1.86586C22.8383 1.58435 22.5011 1.36265 22.1302 1.21389C21.7593 1.06513 21.3624 0.992349 20.9629 0.999855Z" fill="#888888"/>
<path d="M9.28804 13.0668C6.97104 13.5128 5.82304 16.0928 5.32504 17.7008C5.27808 17.8507 5.26708 18.0096 5.29294 18.1645C5.31881 18.3194 5.3808 18.4661 5.4739 18.5926C5.567 18.7191 5.68859 18.8219 5.82882 18.8926C5.96905 18.9634 6.12398 19.0001 6.28104 18.9998H10C10.4172 18.9999 10.8297 18.913 11.2113 18.7447C11.593 18.5763 11.9353 18.3302 12.2165 18.0222C12.4977 17.7141 12.7115 17.3507 12.8444 16.9553C12.9772 16.5599 13.0261 16.1412 12.988 15.7258C12.9349 15.3014 12.7947 14.8926 12.5762 14.5249C12.3577 14.1571 12.0657 13.8385 11.7183 13.5889C11.371 13.3393 10.9758 13.1641 10.5577 13.0742C10.1395 12.9844 9.70725 12.9819 9.28804 13.0668Z" fill="#888888"/>
</g>
<defs>
<clipPath id="clip0_927_4855">
<rect width="24" height="24" fill="white"/>
</clipPath>
</defs>
</svg>
