<svg width="24" height="24" viewBox="0 0 24 24" fill="none" xmlns="http://www.w3.org/2000/svg">
<path d="M17.5001 24.0001C9.35108 24.2301 -5.07692 9.7851 1.86308 1.9381C1.88808 1.9141 2.95408 0.984095 2.95408 0.984095C3.61401 0.346135 4.49813 -0.00705834 5.41597 0.000610607C6.33381 0.00827956 7.21191 0.376197 7.86108 1.0251L10.0141 3.3441C10.6477 4.00653 10.9981 4.88988 10.9908 5.80651C10.9835 6.72314 10.6191 7.60082 9.97508 8.2531L9.58608 8.6471C10.7423 11.206 12.7875 13.2586 15.3421 14.4241L15.7521 14.0241C16.4185 13.3887 17.3039 13.0343 18.2246 13.0343C19.1453 13.0343 20.0307 13.3887 20.6971 14.0241L22.9351 16.1001C23.599 16.7467 23.9802 17.6297 23.9953 18.5564C24.0105 19.483 23.6585 20.3781 23.0161 21.0461C23.0161 21.0461 22.0861 22.1131 22.0621 22.1381C21.4624 22.7345 20.7505 23.2061 19.9675 23.5257C19.1844 23.8453 18.3458 24.0066 17.5001 24.0001ZM3.95008 4.1001C-0.909917 10.1171 14.6431 24.7731 19.9051 20.0501C19.9051 20.0501 20.8291 18.9911 20.8541 18.9661C20.9026 18.921 20.9413 18.8664 20.9678 18.8056C20.9942 18.7449 21.0079 18.6793 21.0079 18.6131C21.0079 18.5468 20.9942 18.4813 20.9678 18.4206C20.9413 18.3598 20.9026 18.3052 20.8541 18.2601L18.6161 16.1861C18.3161 15.9361 18.1481 15.9331 17.8681 16.1461L16.7331 17.2631C16.5282 17.4647 16.2697 17.6031 15.9883 17.662C15.707 17.7209 15.4146 17.6976 15.1461 17.5951C13.1508 16.853 11.3384 15.6905 9.83184 14.1865C8.32524 12.6825 7.15965 10.8721 6.41408 8.8781C6.30524 8.60735 6.27773 8.31074 6.33492 8.02459C6.39212 7.73845 6.53153 7.4752 6.73608 7.2671L7.84508 6.1401C7.89563 6.09554 7.93627 6.04088 7.96438 5.97965C7.9925 5.91842 8.00746 5.85197 8.00831 5.78459C8.00916 5.71722 7.99587 5.65042 7.96931 5.5885C7.94274 5.52657 7.90349 5.47091 7.85408 5.4251L5.70008 3.1061C5.60348 3.02904 5.48176 2.99048 5.3584 2.99787C5.23505 3.00525 5.1188 3.05806 5.03208 3.1461C5.00908 3.1711 3.95008 4.1001 3.95008 4.1001ZM23.6501 10.9331C24.0745 9.46519 24.0975 7.9103 23.7166 6.4305C23.3356 4.9507 22.5648 3.60015 21.4844 2.51962C20.4039 1.43908 19.0534 0.668102 17.5737 0.287045C16.0939 -0.0940125 14.539 -0.0712031 13.0711 0.353095C12.8823 0.409432 12.7065 0.5024 12.5536 0.62669C12.4008 0.75098 12.2739 0.904158 12.1803 1.07748C12.0866 1.2508 12.028 1.44087 12.0078 1.63683C11.9876 1.8328 12.0062 2.03082 12.0626 2.2196C12.1189 2.40837 12.2119 2.5842 12.3362 2.73705C12.4605 2.88989 12.6136 3.01676 12.787 3.11041C12.9603 3.20406 13.1504 3.26265 13.3463 3.28284C13.5423 3.30304 13.7403 3.28443 13.9291 3.2281C14.8784 2.95671 15.8829 2.94418 16.8387 3.19179C17.7944 3.43941 18.6666 3.93816 19.3646 4.63634C20.0627 5.33452 20.5613 6.20671 20.8088 7.1625C21.0563 8.11828 21.0436 9.12286 20.7721 10.0721C20.7158 10.2609 20.6973 10.459 20.7177 10.655C20.738 10.851 20.7967 11.0411 20.8905 11.2143C20.9843 11.3876 21.1113 11.5407 21.2643 11.6649C21.4173 11.7891 21.5932 11.8819 21.7821 11.9381C21.9214 11.9792 22.0659 12 22.2111 12.0001C22.5339 11.9997 22.848 11.8952 23.1068 11.7021C23.3655 11.509 23.555 11.2375 23.6471 10.9281L23.6501 10.9331ZM18.0641 11.0661C18.2035 10.9268 18.314 10.7614 18.3895 10.5793C18.4649 10.3973 18.5038 10.2022 18.5038 10.0051C18.5038 9.80803 18.4649 9.6129 18.3895 9.43085C18.314 9.2488 18.2035 9.0834 18.0641 8.9441L17.0001 7.8791V6.5001C17.0001 6.10227 16.842 5.72074 16.5607 5.43944C16.2794 5.15813 15.8979 5.0001 15.5001 5.0001C15.1023 5.0001 14.7207 5.15813 14.4394 5.43944C14.1581 5.72074 14.0001 6.10227 14.0001 6.5001V8.5001C14 8.69711 14.0387 8.89222 14.114 9.07427C14.1894 9.25631 14.2998 9.42174 14.4391 9.5611L15.9391 11.0611C16.0784 11.2005 16.2438 11.3111 16.4258 11.3865C16.6079 11.4619 16.803 11.5008 17.0001 11.5008C17.1971 11.5008 17.3923 11.4619 17.5743 11.3865C17.7564 11.3111 17.9218 11.2005 18.0611 11.0611L18.0641 11.0661Z" fill="#888888"/>
</svg>
