<svg width="23" height="24" viewBox="0 0 23 24" fill="none" xmlns="http://www.w3.org/2000/svg">
<path d="M22.7499 21.8948L17.0296 16.1745C18.5884 14.268 19.3549 11.8353 19.1704 9.3795C18.9858 6.92375 17.8645 4.63285 16.0383 2.98067C14.212 1.3285 11.8207 0.441447 9.35875 0.503002C6.89684 0.564558 4.55276 1.57001 2.81139 3.31139C1.07001 5.05276 0.0645576 7.39684 0.00300207 9.85875C-0.0585534 12.3207 0.828497 14.712 2.48067 16.5383C4.13285 18.3645 6.42375 19.4858 8.8795 19.6704C11.3353 19.8549 13.768 19.0884 15.6745 17.5296L21.3948 23.2499C21.5755 23.4245 21.8176 23.521 22.0689 23.5189C22.3202 23.5167 22.5605 23.4159 22.7382 23.2382C22.9159 23.0605 23.0167 22.8202 23.0189 22.5689C23.021 22.3176 22.9245 22.0755 22.7499 21.8948ZM9.61401 17.7807C8.09768 17.7807 6.61541 17.331 5.35464 16.4886C4.09386 15.6462 3.1112 14.4488 2.53093 13.0479C1.95066 11.647 1.79883 10.1055 2.09465 8.61832C2.39047 7.13113 3.12065 5.76506 4.19286 4.69286C5.26506 3.62065 6.63113 2.89047 8.11832 2.59465C9.6055 2.29883 11.147 2.45066 12.5479 3.03093C13.9488 3.6112 15.1462 4.59386 15.9886 5.85464C16.831 7.11541 17.2807 8.59768 17.2807 10.114C17.2784 12.1466 16.4699 14.0954 15.0326 15.5326C13.5954 16.9699 11.6466 17.7784 9.61401 17.7807Z" fill="#888888"/>
</svg>
