<svg width="24" height="25" viewBox="0 0 24 25" fill="none" xmlns="http://www.w3.org/2000/svg">
<g clip-path="url(#clip0_927_4869)">
<path d="M10.7 3.5654C10.4188 2.9697 9.9733 2.46604 9.41551 2.11325C8.85771 1.76046 8.21068 1.57312 7.55 1.57312C6.88932 1.57312 6.24229 1.76046 5.68449 2.11325C5.1267 2.46604 4.68118 2.9697 4.4 3.5654H1.5C1.10218 3.5654 0.720644 3.72287 0.43934 4.00316C0.158035 4.28345 0 4.6636 0 5.05999H0C0 5.45638 0.158035 5.83654 0.43934 6.11683C0.720644 6.39712 1.10218 6.55459 1.5 6.55459H4.395C4.67618 7.15029 5.1217 7.65395 5.67949 8.00674C6.23729 8.35953 6.88432 8.54687 7.545 8.54687C8.20568 8.54687 8.85271 8.35953 9.41051 8.00674C9.9683 7.65395 10.4138 7.15029 10.695 6.55459H22.5C22.8978 6.55459 23.2794 6.39712 23.5607 6.11683C23.842 5.83654 24 5.45638 24 5.05999C24 4.6636 23.842 4.28345 23.5607 4.00316C23.2794 3.72287 22.8978 3.5654 22.5 3.5654H10.7Z" fill="#888888"/>
<path d="M16.455 9.41824C15.7944 9.41942 15.1477 9.60728 14.5899 9.96002C14.0321 10.3128 13.5863 10.8159 13.304 11.411H1.5C1.10218 11.411 0.720644 11.5685 0.43934 11.8488C0.158035 12.1291 0 12.5092 0 12.9056H0C0 13.302 0.158035 13.6822 0.43934 13.9625C0.720644 14.2427 1.10218 14.4002 1.5 14.4002H13.3C13.5812 14.9959 14.0267 15.4996 14.5845 15.8524C15.1423 16.2052 15.7893 16.3925 16.45 16.3925C17.1107 16.3925 17.7577 16.2052 18.3155 15.8524C18.8733 15.4996 19.3188 14.9959 19.6 14.4002H22.5C22.8978 14.4002 23.2794 14.2427 23.5607 13.9625C23.842 13.6822 24 13.302 24 12.9056C24 12.5092 23.842 12.1291 23.5607 11.8488C23.2794 11.5685 22.8978 11.411 22.5 11.411H19.605C19.3228 10.8161 18.8771 10.313 18.3195 9.96028C17.762 9.60755 17.1154 9.4196 16.455 9.41824V9.41824Z" fill="#888888"/>
<path d="M7.545 17.2649C6.88455 17.2662 6.23804 17.4542 5.68048 17.8069C5.12292 18.1596 4.67718 18.6627 4.395 19.2576H1.5C1.10218 19.2576 0.720644 19.4151 0.43934 19.6954C0.158035 19.9757 0 20.3558 0 20.7522H0C0 21.1486 0.158035 21.5288 0.43934 21.8091C0.720644 22.0894 1.10218 22.2468 1.5 22.2468H4.395C4.67618 22.8425 5.1217 23.3462 5.67949 23.699C6.23729 24.0518 6.88432 24.2391 7.545 24.2391C8.20568 24.2391 8.85271 24.0518 9.41051 23.699C9.9683 23.3462 10.4138 22.8425 10.695 22.2468H22.5C22.8978 22.2468 23.2794 22.0894 23.5607 21.8091C23.842 21.5288 24 21.1486 24 20.7522C24 20.3558 23.842 19.9757 23.5607 19.6954C23.2794 19.4151 22.8978 19.2576 22.5 19.2576H10.7C10.4175 18.6619 9.97094 18.1584 9.41241 17.8056C8.85388 17.4528 8.2063 17.2653 7.545 17.2649V17.2649Z" fill="#888888"/>
</g>
<defs>
<clipPath id="clip0_927_4869">
<rect width="24" height="23.9135" fill="white" transform="translate(0 0.949524)"/>
</clipPath>
</defs>
</svg>
