<svg width="30" height="31" viewBox="0 0 30 31" fill="none" xmlns="http://www.w3.org/2000/svg">
<path d="M23.0236 4.56944H22.2806C22.0247 3.57851 21.4478 2.70029 20.6399 2.07206C19.832 1.44383 18.8387 1.101 17.8152 1.09717L13.1856 1.09717C12.1621 1.101 11.1688 1.44383 10.3609 2.07206C9.55304 2.70029 8.97607 3.57851 8.72022 4.56944H7.97715C6.2894 4.57127 4.67129 5.24255 3.47787 6.43597C2.28444 7.6294 1.61317 9.2475 1.61133 10.9353L1.61133 22.5095C1.61317 24.1972 2.28444 25.8153 3.47787 27.0088C4.67129 28.2022 6.2894 28.8735 7.97715 28.8753H23.0236C24.7113 28.8732 26.3292 28.2018 27.5226 27.0084C28.716 25.8151 29.3873 24.1972 29.3895 22.5095V10.9353C29.3873 9.2476 28.716 7.62967 27.5226 6.43631C26.3292 5.24295 24.7113 4.57158 23.0236 4.56944ZM7.97715 8.0417H23.0236C23.7911 8.0417 24.5271 8.34656 25.0697 8.88921C25.6123 9.43185 25.9172 10.1678 25.9172 10.9353V13.8288H5.0836V10.9353C5.0836 10.1678 5.38845 9.43185 5.9311 8.88921C6.47375 8.34656 7.20973 8.0417 7.97715 8.0417ZM23.0236 25.403H7.97715C7.20973 25.403 6.47375 25.0982 5.9311 24.5555C5.38845 24.0129 5.0836 23.2769 5.0836 22.5095V17.3011H13.1856C13.1856 17.915 13.4294 18.5038 13.8636 18.9379C14.2977 19.372 14.8865 19.6159 15.5004 19.6159C16.1143 19.6159 16.7031 19.372 17.1372 18.9379C17.5714 18.5038 17.8152 17.915 17.8152 17.3011H25.9172V22.5095C25.9172 23.2769 25.6123 24.0129 25.0697 24.5555C24.5271 25.0982 23.7911 25.403 23.0236 25.403Z" fill="#FFC400"/>
</svg>
