<svg width="29" height="29" viewBox="0 0 29 29" fill="none" xmlns="http://www.w3.org/2000/svg">
<g clip-path="url(#clip0_4514_19807)">
<path d="M22.0233 11.9237C22.4837 11.9237 22.9253 11.7408 23.2509 11.4152C23.5765 11.0896 23.7594 10.6481 23.7594 10.1876V9.39246C23.7572 7.76219 23.1087 6.19932 21.9559 5.04655C20.8031 3.89378 19.2403 3.24521 17.61 3.24307H16.2361V2.66436C16.2361 2.20391 16.0532 1.76231 15.7276 1.43672C15.4021 1.11114 14.9605 0.928223 14.5 0.928223C14.0396 0.928223 13.598 1.11114 13.2724 1.43672C12.9468 1.76231 12.7639 2.20391 12.7639 2.66436V3.24307H11.39C9.91369 3.24087 8.48586 3.76986 7.36733 4.73341C6.24881 5.69695 5.51426 7.03074 5.29787 8.49112C5.08149 9.95149 5.3977 11.441 6.18876 12.6875C6.97981 13.934 8.1929 14.8543 9.60642 15.2803L12.7639 16.1437V22.9193H11.39C10.6803 22.9183 9.99988 22.636 9.49802 22.1341C8.99616 21.6323 8.71381 20.9519 8.71289 20.2421V19.447C8.71289 18.9865 8.52998 18.5449 8.20439 18.2194C7.8788 17.8938 7.43721 17.7109 6.97676 17.7109C6.51631 17.7109 6.07471 17.8938 5.74913 18.2194C5.42354 18.5449 5.24062 18.9865 5.24062 19.447V20.2421C5.24277 21.8724 5.89134 23.4353 7.04411 24.588C8.19688 25.7408 9.75975 26.3894 11.39 26.3915H12.7639V26.9702C12.7639 27.4307 12.9468 27.8723 13.2724 28.1979C13.598 28.5235 14.0396 28.7064 14.5 28.7064C14.9605 28.7064 15.4021 28.5235 15.7276 28.1979C16.0532 27.8723 16.2361 27.4307 16.2361 26.9702V26.3915H17.61C19.0863 26.3937 20.5142 25.8647 21.6327 24.9012C22.7512 23.9376 23.4858 22.6039 23.7021 21.1435C23.9185 19.6831 23.6023 18.1936 22.8113 16.9471C22.0202 15.7006 20.8071 14.7803 19.3936 14.3543L16.2361 13.4932V6.71534H17.61C18.3197 6.71626 19.0001 6.9986 19.502 7.50046C20.0039 8.00232 20.2862 8.68272 20.2871 9.39246V10.1876C20.2871 10.6481 20.47 11.0896 20.7956 11.4152C21.1212 11.7408 21.5628 11.9237 22.0233 11.9237ZM18.4144 17.6865C19.025 17.879 19.5465 18.2837 19.8843 18.8275C20.2222 19.3713 20.3541 20.0181 20.2562 20.6508C20.1582 21.2834 19.8369 21.8601 19.3504 22.2762C18.8639 22.6924 18.2444 22.9205 17.6042 22.9193H16.2361V17.0916L18.4144 17.6865ZM12.7639 12.543L10.5856 11.948C9.97549 11.7558 9.45434 11.3515 9.11644 10.8083C8.77855 10.2651 8.64624 9.61894 8.74343 8.98667C8.84063 8.3544 9.16092 7.7778 9.64636 7.36119C10.1318 6.94458 10.7503 6.71548 11.39 6.71534H12.7639V12.543Z" fill="#FFC400"/>
</g>
<defs>
<clipPath id="clip0_4514_19807">
<rect width="27.7781" height="27.7781" fill="white" transform="translate(0.611328 0.928223)"/>
</clipPath>
</defs>
</svg>
