<svg width="30" height="31" viewBox="0 0 30 31" fill="none" xmlns="http://www.w3.org/2000/svg">
<g clip-path="url(#clip0_4449_7654)">
<path d="M20.7088 1.87598C20.2484 1.87598 19.8068 2.05889 19.4812 2.38448C19.1556 2.71007 18.9727 3.15166 18.9727 3.61211C18.9727 5.13644 18.5745 6.50567 13.7643 6.50567H6.81973C5.43885 6.5072 4.11496 7.05643 3.13853 8.03287C2.16209 9.0093 1.61286 10.3332 1.61133 11.7141L1.61133 15.1863C1.6145 16.1247 1.87201 17.0446 2.35647 17.8483C2.84093 18.6519 3.53421 19.3091 4.36252 19.7501L8.04081 27.9597C8.26521 28.4639 8.63093 28.8923 9.09373 29.193C9.55653 29.4938 10.0966 29.6539 10.6485 29.6541C11.0706 29.6538 11.486 29.5481 11.8569 29.3466C12.2278 29.1451 12.5425 28.8541 12.7725 28.5001C13.0024 28.1461 13.1403 27.7403 13.1737 27.3195C13.207 26.8987 13.1347 26.4762 12.9633 26.0904L10.351 20.3947H13.7643C18.5745 20.3947 18.9727 21.764 18.9727 23.2883C18.9727 23.7487 19.1556 24.1903 19.4812 24.5159C19.8068 24.8415 20.2484 25.0244 20.7088 25.0244C21.1693 25.0244 21.6108 24.8415 21.9364 24.5159C22.262 24.1903 22.4449 23.7487 22.4449 23.2883V3.61211C22.4449 3.15166 22.262 2.71007 21.9364 2.38448C21.6108 2.05889 21.1693 1.87598 20.7088 1.87598V1.87598ZM18.9727 17.7454C17.3078 17.1302 15.5377 16.8505 13.7643 16.9225H6.81973C6.35928 16.9225 5.91769 16.7396 5.5921 16.414C5.26651 16.0884 5.0836 15.6468 5.0836 15.1863V11.7141C5.0836 11.2536 5.26651 10.812 5.5921 10.4864C5.91769 10.1608 6.35928 9.97794 6.81973 9.97794H13.7643C15.5377 10.0499 17.3078 9.77022 18.9727 9.15501V17.7454ZM29.2066 20.0139C29.1047 20.218 28.9635 20.3999 28.7912 20.5494C28.619 20.6988 28.4189 20.8129 28.2026 20.885C27.9862 20.9571 27.7577 20.9859 27.5302 20.9697C27.3028 20.9535 27.0807 20.8926 26.8767 20.7906L25.7193 20.2119C25.3073 20.0059 24.9941 19.6447 24.8484 19.2078C24.7028 18.7708 24.7367 18.2939 24.9427 17.882C25.1486 17.47 25.5098 17.1568 25.9468 17.0111C26.3837 16.8655 26.8606 16.8994 27.2726 17.1053L28.43 17.6841C28.634 17.786 28.8159 17.9271 28.9654 18.0994C29.1148 18.2717 29.2289 18.4717 29.301 18.6881C29.3731 18.9045 29.4019 19.1329 29.3857 19.3604C29.3695 19.5879 29.3087 19.81 29.2066 20.0139ZM24.9427 9.01843C24.8406 8.81447 24.7797 8.59239 24.7635 8.3649C24.7473 8.1374 24.7761 7.90895 24.8483 7.69258C24.9204 7.47621 25.0344 7.27618 25.1839 7.1039C25.3333 6.93162 25.5153 6.79048 25.7193 6.68854L26.8767 6.10983C27.2887 5.90385 27.7656 5.86996 28.2025 6.01561C28.6394 6.16125 29.0006 6.47451 29.2066 6.88646C29.4126 7.29841 29.4465 7.77531 29.3008 8.21225C29.1552 8.64919 28.8419 9.01038 28.43 9.21635L27.2726 9.79506C27.0686 9.89711 26.8465 9.95798 26.619 9.97418C26.3915 9.99037 26.1631 9.96159 25.9467 9.88947C25.7303 9.81735 25.5303 9.7033 25.358 9.55384C25.1857 9.40439 25.0446 9.22245 24.9427 9.01843ZM24.7598 13.4502C24.7598 12.9898 24.9427 12.5482 25.2683 12.2226C25.5939 11.897 26.0355 11.7141 26.4959 11.7141H27.6533C28.1138 11.7141 28.5554 11.897 28.881 12.2226C29.2066 12.5482 29.3895 12.9898 29.3895 13.4502C29.3895 13.9107 29.2066 14.3522 28.881 14.6778C28.5554 15.0034 28.1138 15.1863 27.6533 15.1863H26.4959C26.0355 15.1863 25.5939 15.0034 25.2683 14.6778C24.9427 14.3522 24.7598 13.9107 24.7598 13.4502Z" fill="#FFC400"/>
</g>
<defs>
<clipPath id="clip0_4449_7654">
<rect width="27.7781" height="27.7781" fill="white" transform="translate(1.61133 1.87598)"/>
</clipPath>
</defs>
</svg>
