<svg width="31" height="31" viewBox="0 0 31 31" fill="none" xmlns="http://www.w3.org/2000/svg">
<g clip-path="url(#clip0_4449_7677)">
<path d="M20.5942 13.1024C22.0005 13.1024 23.1405 11.9624 23.1405 10.5561C23.1405 9.14979 22.0005 8.00977 20.5942 8.00977C19.1879 8.00977 18.0479 9.14979 18.0479 10.5561C18.0479 11.9624 19.1879 13.1024 20.5942 13.1024Z" fill="#FFC400"/>
<path d="M11.6801 13.1024C13.0864 13.1024 14.2264 11.9624 14.2264 10.5561C14.2264 9.14979 13.0864 8.00977 11.6801 8.00977C10.2738 8.00977 9.13379 9.14979 9.13379 10.5561C9.13379 11.9624 10.2738 13.1024 11.6801 13.1024Z" fill="#FFC400"/>
<path d="M10.4077 22.0145C11.8139 22.0145 12.954 20.8745 12.954 19.4682C12.954 18.0619 11.8139 16.9219 10.4077 16.9219C9.00136 16.9219 7.86133 18.0619 7.86133 19.4682C7.86133 20.8745 9.00136 22.0145 10.4077 22.0145Z" fill="#FFC400"/>
<path d="M30.8241 14.2842C30.4536 10.5893 28.7657 7.15118 26.0689 4.59838C23.3721 2.04557 19.8466 0.548644 16.1369 0.381257C14.1074 0.307194 12.0834 0.638511 10.1834 1.35583C8.28346 2.07316 6.54556 3.16209 5.07136 4.55896C3.59716 5.95583 2.41626 7.63259 1.5977 9.49121C0.779142 11.3498 0.339358 13.353 0.304065 15.3836C0.268772 17.4142 0.638678 19.4314 1.39215 21.3173C2.14563 23.2033 3.26755 24.9201 4.69231 26.3673C6.11708 27.8146 7.81609 28.9632 9.69 29.7462C11.5639 30.5291 13.5751 30.9305 15.606 30.927C16.0363 30.927 16.4577 30.899 16.8792 30.8646C17.3596 30.8248 17.8072 30.6048 18.1321 30.2487C18.457 29.8926 18.6353 29.4268 18.631 28.9447L18.5928 24.5841C18.5865 23.8616 18.7954 23.1536 19.1929 22.5502C19.5903 21.9468 20.1584 21.4753 20.8247 21.1958C21.491 20.9163 22.2254 20.8415 22.9344 20.9808C23.6433 21.12 24.2948 21.4672 24.8059 21.978L24.9332 22.1053C25.292 22.4646 25.7354 22.7281 26.2226 22.8713C26.7098 23.0146 27.2252 23.0331 27.7214 22.9252C28.2096 22.8203 28.6637 22.5946 29.0421 22.2687C29.4204 21.9429 29.711 21.5273 29.8871 21.06C30.7115 18.9023 31.032 16.5847 30.8241 14.2842ZM26.6876 18.5697C25.5737 17.7405 24.2505 17.2386 22.8669 17.1205C21.4833 17.0025 20.0942 17.2729 18.856 17.9013C17.6177 18.5298 16.5794 19.4914 15.8579 20.6779C15.1364 21.8643 14.7603 23.2286 14.7721 24.6172L14.7937 27.0783C11.8339 26.8663 9.07173 25.5143 7.08859 23.3069C5.10544 21.0995 4.05596 18.2088 4.16104 15.2433C4.26613 12.2777 5.51757 9.46861 7.65198 7.40711C9.7864 5.34562 12.6373 4.19254 15.6047 4.19057C15.732 4.19057 15.8746 4.19057 16.0096 4.19821C18.7902 4.32396 21.4327 5.44602 23.4543 7.35936C25.4759 9.2727 26.7415 11.8496 27.0199 14.6191C27.1405 15.9452 27.028 17.2823 26.6876 18.5697Z" fill="#FFC400"/>
</g>
<defs>
<clipPath id="clip0_4449_7677">
<rect width="30.556" height="30.556" fill="white" transform="translate(0.222656 0.370605)"/>
</clipPath>
</defs>
</svg>
