<svg width="17" height="17" viewBox="0 0 17 17" fill="none" xmlns="http://www.w3.org/2000/svg">
<path d="M16.493 15.2118L13.2414 11.9589C15.6744 8.70753 15.011 4.09943 11.7597 1.66643C8.50831 -0.766577 3.90021 -0.103176 1.46721 3.14817C-0.965796 6.39951 -0.302395 11.0076 2.94895 13.4406C5.56069 15.395 9.14787 15.395 11.7597 13.4406L15.0126 16.6936C15.4214 17.1024 16.0842 17.1024 16.493 16.6936C16.9018 16.2848 16.9018 15.622 16.493 15.2133L16.493 15.2118ZM7.38141 12.8128C4.49177 12.8128 2.14928 10.4703 2.14928 7.58063C2.14928 4.69099 4.49177 2.3485 7.38141 2.3485C10.271 2.3485 12.6135 4.69099 12.6135 7.58063C12.6105 10.469 10.2698 12.8097 7.38141 12.8128Z" fill="#FFC400"/>
</svg>
