<svg width="30" height="31" viewBox="0 0 30 31" fill="none" xmlns="http://www.w3.org/2000/svg">
<g clip-path="url(#clip0_4449_7634)">
<path d="M27.6533 25.4553H7.97715C7.20973 25.4553 6.47375 25.1504 5.9311 24.6078C5.38845 24.0651 5.0836 23.3292 5.0836 22.5617V2.88555C5.0836 2.4251 4.90068 1.9835 4.57509 1.65792C4.24951 1.33233 3.80791 1.14941 3.34746 1.14941C2.88701 1.14941 2.44542 1.33233 2.11983 1.65792C1.79424 1.9835 1.61133 2.4251 1.61133 2.88555L1.61133 22.5617C1.61317 24.2495 2.28444 25.8676 3.47787 27.061C4.67129 28.2544 6.2894 28.9257 7.97715 28.9276H27.6533C28.1138 28.9276 28.5554 28.7446 28.881 28.4191C29.2066 28.0935 29.3895 27.6519 29.3895 27.1914C29.3895 26.731 29.2066 26.2894 28.881 25.9638C28.5554 25.6382 28.1138 25.4553 27.6533 25.4553Z" fill="#FFC400"/>
<path d="M12.6063 11.5664C12.1458 11.5664 11.7042 11.7493 11.3786 12.0749C11.053 12.4005 10.8701 12.8421 10.8701 13.3025V21.4045C10.8701 21.865 11.053 22.3065 11.3786 22.6321C11.7042 22.9577 12.1458 23.1406 12.6063 23.1406C13.0667 23.1406 13.5083 22.9577 13.8339 22.6321C14.1595 22.3065 14.3424 21.865 14.3424 21.4045V13.3025C14.3424 12.8421 14.1595 12.4005 13.8339 12.0749C13.5083 11.7493 13.0667 11.5664 12.6063 11.5664Z" fill="#FFC400"/>
<path d="M17.8145 16.7747V21.4044C17.8145 21.8649 17.9974 22.3064 18.323 22.632C18.6485 22.9576 19.0901 23.1405 19.5506 23.1405C20.011 23.1405 20.4526 22.9576 20.7782 22.632C21.1038 22.3064 21.2867 21.8649 21.2867 21.4044V16.7747C21.2867 16.3143 21.1038 15.8727 20.7782 15.5471C20.4526 15.2215 20.011 15.0386 19.5506 15.0386C19.0901 15.0386 18.6485 15.2215 18.323 15.5471C17.9974 15.8727 17.8145 16.3143 17.8145 16.7747Z" fill="#FFC400"/>
<path d="M24.7588 12.1448V21.4042C24.7588 21.8646 24.9417 22.3062 25.2673 22.6318C25.5929 22.9574 26.0345 23.1403 26.4949 23.1403C26.9554 23.1403 27.397 22.9574 27.7226 22.6318C28.0481 22.3062 28.2311 21.8646 28.2311 21.4042V12.1448C28.2311 11.6844 28.0481 11.2428 27.7226 10.9172C27.397 10.5916 26.9554 10.4087 26.4949 10.4087C26.0345 10.4087 25.5929 10.5916 25.2673 10.9172C24.9417 11.2428 24.7588 11.6844 24.7588 12.1448Z" fill="#FFC400"/>
<path d="M8.55498 9.82989C8.94904 9.83072 9.33145 9.6963 9.63833 9.44909L12.2749 7.34143C12.8073 6.914 13.4789 6.69838 14.1606 6.73598C14.8423 6.77358 15.4861 7.06175 15.9683 7.54513C17.081 8.64374 18.5633 9.28808 20.1257 9.35229C21.6881 9.41649 23.2183 8.89596 24.4174 7.89236L28.774 4.20597C28.9596 4.0625 29.1142 3.88291 29.2285 3.67803C29.3427 3.47315 29.4143 3.24723 29.4388 3.01393C29.4634 2.78062 29.4404 2.54476 29.3712 2.32059C29.3021 2.09641 29.1882 1.88858 29.0365 1.70964C28.8848 1.53069 28.6984 1.38435 28.4886 1.27945C28.2788 1.17454 28.0498 1.11325 27.8157 1.09928C27.5815 1.0853 27.3469 1.11893 27.1261 1.19813C26.9053 1.27733 26.7028 1.40047 26.5309 1.5601L22.1755 5.24649C21.6421 5.69131 20.9619 5.9212 20.268 5.89124C19.5741 5.86127 18.9163 5.5736 18.4232 5.08445C17.3376 3.99582 15.8882 3.34646 14.3532 3.26102C12.8181 3.17557 11.3056 3.66005 10.1059 4.62148L7.47048 6.73841C7.1897 6.96318 6.98566 7.26961 6.88655 7.61535C6.78744 7.96109 6.79816 8.32907 6.91722 8.66846C7.03628 9.00785 7.2578 9.30188 7.55118 9.50993C7.84456 9.71798 8.19532 9.82978 8.55498 9.82989Z" fill="#FFC400"/>
</g>
<defs>
<clipPath id="clip0_4449_7634">
<rect width="27.7781" height="27.7781" fill="white" transform="translate(1.61133 1.14941)"/>
</clipPath>
</defs>
</svg>
