<svg width="29" height="29" viewBox="0 0 29 29" fill="none" xmlns="http://www.w3.org/2000/svg">
<path d="M22.0236 0.759277H6.97715C5.2894 0.761116 3.67129 1.43239 2.47787 2.62581C1.28444 3.81924 0.613166 5.43735 0.611328 7.1251L0.611328 16.3845C0.613166 18.0722 1.28444 19.6903 2.47787 20.8838C3.67129 22.0772 5.2894 22.7485 6.97715 22.7503H12.7643V25.0652H9.87071C9.41026 25.0652 8.96867 25.2481 8.64308 25.5737C8.31749 25.8992 8.13458 26.3408 8.13458 26.8013C8.13458 27.2617 8.31749 27.7033 8.64308 28.0289C8.96867 28.3545 9.41026 28.5374 9.87071 28.5374H19.1301C19.5905 28.5374 20.0321 28.3545 20.3577 28.0289C20.6833 27.7033 20.8662 27.2617 20.8662 26.8013C20.8662 26.3408 20.6833 25.8992 20.3577 25.5737C20.0321 25.2481 19.5905 25.0652 19.1301 25.0652H16.2365V22.7503H22.0236C23.7114 22.7485 25.3295 22.0772 26.5229 20.8838C27.7164 19.6903 28.3876 18.0722 28.3895 16.3845V7.1251C28.3876 5.43735 27.7164 3.81924 26.5229 2.62581C25.3295 1.43239 23.7114 0.761116 22.0236 0.759277V0.759277ZM6.97715 4.23155H22.0236C22.7911 4.23155 23.5271 4.5364 24.0697 5.07905C24.6124 5.6217 24.9172 6.35768 24.9172 7.1251V15.8058H4.0836V7.1251C4.0836 6.35768 4.38845 5.6217 4.9311 5.07905C5.47375 4.5364 6.20973 4.23155 6.97715 4.23155V4.23155Z" fill="#FFC400"/>
</svg>
