<svg width="15" height="15" viewBox="0 0 15 15" fill="none" xmlns="http://www.w3.org/2000/svg">
<g clip-path="url(#clip0_3927_8888)">
<path d="M14.0625 9.6875C13.8139 9.6875 13.5754 9.78627 13.3996 9.96209C13.2238 10.1379 13.125 10.3764 13.125 10.625V11.5625C13.125 11.9769 12.9604 12.3743 12.6674 12.6673C12.3743 12.9604 11.9769 13.125 11.5625 13.125H10.625C10.3764 13.125 10.1379 13.2238 9.96209 13.3996C9.78627 13.5754 9.6875 13.8138 9.6875 14.0625C9.6875 14.3111 9.78627 14.5496 9.96209 14.7254C10.1379 14.9012 10.3764 15 10.625 15H11.5625C12.4739 14.999 13.3476 14.6365 13.9921 13.9921C14.6365 13.3476 14.999 12.4739 15 11.5625V10.625C15 10.3764 14.9012 10.1379 14.7254 9.96209C14.5496 9.78627 14.3111 9.6875 14.0625 9.6875Z" fill="#FFC400"/>
<path d="M0.9375 5.3125C1.18614 5.3125 1.4246 5.21373 1.60041 5.03791C1.77623 4.8621 1.875 4.62364 1.875 4.375V3.4375C1.875 3.0231 2.03962 2.62567 2.33265 2.33265C2.62567 2.03962 3.0231 1.875 3.4375 1.875H4.375C4.62364 1.875 4.8621 1.77623 5.03791 1.60041C5.21373 1.4246 5.3125 1.18614 5.3125 0.9375C5.3125 0.68886 5.21373 0.450403 5.03791 0.274587C4.8621 0.098772 4.62364 0 4.375 0L3.4375 0C2.52612 0.000992606 1.65236 0.363476 1.00792 1.00792C0.363476 1.65236 0.000992606 2.52612 0 3.4375L0 4.375C0 4.62364 0.098772 4.8621 0.274587 5.03791C0.450403 5.21373 0.68886 5.3125 0.9375 5.3125Z" fill="#FFC400"/>
<path d="M4.375 13.125H3.4375C3.0231 13.125 2.62567 12.9604 2.33265 12.6673C2.03962 12.3743 1.875 11.9769 1.875 11.5625V10.625C1.875 10.3764 1.77623 10.1379 1.60041 9.96209C1.4246 9.78627 1.18614 9.6875 0.9375 9.6875C0.68886 9.6875 0.450403 9.78627 0.274587 9.96209C0.098772 10.1379 0 10.3764 0 10.625L0 11.5625C0.000992606 12.4739 0.363476 13.3476 1.00792 13.9921C1.65236 14.6365 2.52612 14.999 3.4375 15H4.375C4.62364 15 4.8621 14.9012 5.03791 14.7254C5.21373 14.5496 5.3125 14.3111 5.3125 14.0625C5.3125 13.8138 5.21373 13.5754 5.03791 13.3996C4.8621 13.2238 4.62364 13.125 4.375 13.125Z" fill="#FFC400"/>
<path d="M11.5625 0H10.625C10.3764 0 10.1379 0.098772 9.96209 0.274587C9.78627 0.450403 9.6875 0.68886 9.6875 0.9375C9.6875 1.18614 9.78627 1.4246 9.96209 1.60041C10.1379 1.77623 10.3764 1.875 10.625 1.875H11.5625C11.9769 1.875 12.3743 2.03962 12.6674 2.33265C12.9604 2.62567 13.125 3.0231 13.125 3.4375V4.375C13.125 4.62364 13.2238 4.8621 13.3996 5.03791C13.5754 5.21373 13.8139 5.3125 14.0625 5.3125C14.3111 5.3125 14.5496 5.21373 14.7254 5.03791C14.9012 4.8621 15 4.62364 15 4.375V3.4375C14.999 2.52612 14.6365 1.65236 13.9921 1.00792C13.3476 0.363476 12.4739 0.000992606 11.5625 0V0Z" fill="#FFC400"/>
<path d="M7.5 6.875C8.70812 6.875 9.6875 5.89562 9.6875 4.6875C9.6875 3.47938 8.70812 2.5 7.5 2.5C6.29188 2.5 5.3125 3.47938 5.3125 4.6875C5.3125 5.89562 6.29188 6.875 7.5 6.875Z" fill="#FFC400"/>
<path d="M3.81856 11.1544C3.80408 11.2436 3.80927 11.335 3.83379 11.422C3.8583 11.5091 3.90154 11.5897 3.96048 11.6583C4.01942 11.7269 4.09263 11.7817 4.17499 11.8191C4.25736 11.8564 4.34689 11.8753 4.43731 11.8744H10.5623C10.6528 11.8754 10.7425 11.8567 10.825 11.8195C10.9075 11.7822 10.9809 11.7274 11.04 11.6588C11.0991 11.5901 11.1424 11.5094 11.167 11.4223C11.1916 11.3352 11.1968 11.2437 11.1823 11.1544C11.0164 10.2998 10.5583 9.52958 9.88664 8.97579C9.21498 8.422 8.37158 8.11914 7.50105 8.11914C6.63053 8.11914 5.78712 8.422 5.11546 8.97579C4.4438 9.52958 3.98574 10.2998 3.81981 11.1544H3.81856Z" fill="#FFC400"/>
</g>
<defs>
<clipPath id="clip0_3927_8888">
<rect width="15" height="15" fill="white"/>
</clipPath>
</defs>
</svg>
