<svg width="15" height="15" viewBox="0 0 15 15" fill="none" xmlns="http://www.w3.org/2000/svg">
<g clip-path="url(#clip0_140_1221)">
<path d="M13.765 1.42367C13.375 1.09874 12.918 0.864206 12.4266 0.736908C11.9353 0.60961 11.4218 0.592708 10.9231 0.687415L8.87125 1.11742C8.36142 1.20861 7.88679 1.43922 7.5 1.78367C7.12131 1.44176 6.65497 1.21194 6.15313 1.11992L4.0525 0.682415C3.55729 0.592364 3.04834 0.612163 2.56162 0.740414C2.0749 0.868664 1.62228 1.10224 1.23575 1.42463C0.849212 1.74702 0.538192 2.15036 0.324662 2.60616C0.111131 3.06195 0.000301711 3.55908 3.30929e-06 4.06241V10.1824C-0.00111105 10.9853 0.279243 11.7631 0.792302 12.3807C1.30536 12.9982 2.01866 13.4164 2.80813 13.5624L6.4375 14.2793C6.78682 14.343 7.14118 14.375 7.49625 14.3749C7.85847 14.3747 8.21993 14.3418 8.57625 14.2768L12.1775 13.5624C12.9691 13.4185 13.6851 13.0014 14.2008 12.3839C14.7166 11.7664 14.9994 10.9876 15 10.183V4.06241C15.0005 3.55888 14.8901 3.06142 14.6767 2.60537C14.4632 2.14932 14.152 1.74586 13.765 1.42367ZM6.5625 12.393L3.15813 11.7205C2.79805 11.6551 2.47237 11.4654 2.23788 11.1844C2.00338 10.9034 1.87496 10.549 1.875 10.183V4.06241C1.87615 3.64902 2.04063 3.25282 2.33259 2.96015C2.62456 2.66748 3.02036 2.50206 3.43375 2.49992C3.52053 2.49975 3.60713 2.50749 3.6925 2.52304L5.79313 2.96054C6.00898 2.99989 6.20419 3.11369 6.34477 3.28214C6.48535 3.45059 6.5624 3.66301 6.5625 3.88241V12.393ZM13.125 10.183C13.1243 10.5512 12.9939 10.9074 12.7568 11.189C12.5196 11.4706 12.1908 11.6597 11.8281 11.723L8.4375 12.393V3.88241C8.43881 3.6589 8.51935 3.44309 8.66481 3.27338C8.81026 3.10366 9.0112 2.99104 9.23188 2.95554L11.2831 2.52616C11.5082 2.48526 11.7395 2.49428 11.9607 2.55258C12.1819 2.61089 12.3876 2.71705 12.5633 2.86357C12.739 3.0101 12.8803 3.19341 12.9774 3.40056C13.0745 3.60772 13.1248 3.83365 13.125 4.06241V10.183Z" fill="#FFC400"/>
</g>
<defs>
<clipPath id="clip0_140_1221">
<rect width="15" height="15" fill="white"/>
</clipPath>
</defs>
</svg>
