<svg width="12" height="12" viewBox="0 0 12 12" fill="none" xmlns="http://www.w3.org/2000/svg">
<path d="M7.42507 5.9999L9.20295 4.22019C9.31838 4.089 9.37952 3.91877 9.37394 3.74411C9.36836 3.56946 9.29649 3.40348 9.17293 3.27992C9.04936 3.15635 8.88339 3.08448 8.70873 3.0789C8.53407 3.07333 8.36385 3.13447 8.23266 3.2499L6.45295 5.02777L4.67003 3.2444C4.60617 3.18054 4.53036 3.12988 4.44692 3.09532C4.36348 3.06076 4.27405 3.04297 4.18374 3.04297C4.09343 3.04297 4.004 3.06076 3.92056 3.09532C3.83712 3.12988 3.76131 3.18054 3.69745 3.2444C3.63359 3.30826 3.58293 3.38407 3.54837 3.46751C3.51381 3.55095 3.49602 3.64038 3.49602 3.73069C3.49602 3.821 3.51381 3.91043 3.54837 3.99387C3.58293 4.07731 3.63359 4.15312 3.69745 4.21698L5.48082 5.9999L3.70295 7.77915C3.63322 7.84148 3.57695 7.91737 3.53756 8.0022C3.49818 8.08702 3.47652 8.17899 3.4739 8.27248C3.47129 8.36596 3.48777 8.459 3.52235 8.54589C3.55692 8.63279 3.60887 8.71172 3.675 8.77785C3.74113 8.84398 3.82005 8.89592 3.90695 8.9305C3.99384 8.96507 4.08688 8.98156 4.18037 8.97894C4.27385 8.97633 4.36582 8.95466 4.45065 8.91528C4.53547 8.8759 4.61137 8.81962 4.6737 8.7499L6.45295 6.97202L8.23036 8.7499C8.35934 8.87887 8.53426 8.95132 8.71666 8.95132C8.89905 8.95132 9.07397 8.87887 9.20295 8.7499C9.33192 8.62092 9.40438 8.446 9.40438 8.2636C9.40438 8.08121 9.33192 7.90629 9.20295 7.77731L7.42507 5.9999Z" fill="#888888"/>
<g clip-path="url(#clip0_3928_13465)">
<path d="M9.4323 11.5H3.47395C2.08237 11.4985 0.95465 10.3708 0.953125 8.97917V3.02083C0.95465 1.62924 2.08237 0.501525 3.47395 0.5H9.43228C10.8239 0.501525 11.9516 1.62924 11.9531 3.02083V8.97915C11.9516 10.3708 10.8239 11.4985 9.4323 11.5ZM3.47395 1.875C2.84113 1.875 2.32812 2.388 2.32812 3.02083V8.97915C2.32812 9.612 2.84113 10.125 3.47395 10.125H9.43228C10.0651 10.125 10.5781 9.612 10.5781 8.97917V3.02083C10.5781 2.388 10.0651 1.875 9.4323 1.875H3.47395Z" fill="#888888"/>
</g>
<defs>
<clipPath id="clip0_3928_13465">
<rect width="11" height="11" fill="white" transform="translate(0.953125 0.5)"/>
</clipPath>
</defs>
</svg>
