<svg width="14" height="15" viewBox="0 0 14 15" fill="none" xmlns="http://www.w3.org/2000/svg">
<path d="M10.3125 0H4.6875C4.05455 0.000688325 3.43407 0.176122 2.89447 0.506965C2.35486 0.837808 1.91708 1.31121 1.62938 1.875H0.9375C0.68886 1.875 0.450403 1.97377 0.274587 2.14959C0.0987721 2.3254 0 2.56386 0 2.8125C0 3.06114 0.0987721 3.2996 0.274587 3.47541C0.450403 3.65123 0.68886 3.75 0.9375 3.75H1.25V5H0.9375C0.68886 5 0.450403 5.09877 0.274587 5.27459C0.0987721 5.4504 0 5.68886 0 5.9375C0 6.18614 0.0987721 6.4246 0.274587 6.60041C0.450403 6.77623 0.68886 6.875 0.9375 6.875H1.25V8.125H0.9375C0.68886 8.125 0.450403 8.22377 0.274587 8.39959C0.0987721 8.5754 0 8.81386 0 9.0625C0 9.31114 0.0987721 9.5496 0.274587 9.72541C0.450403 9.90123 0.68886 10 0.9375 10H1.25V11.25H0.9375C0.68886 11.25 0.450403 11.3488 0.274587 11.5246C0.0987721 11.7004 0 11.9389 0 12.1875C0 12.4361 0.0987721 12.6746 0.274587 12.8504C0.450403 13.0262 0.68886 13.125 0.9375 13.125H1.62938C1.91708 13.6888 2.35486 14.1622 2.89447 14.493C3.43407 14.8239 4.05455 14.9993 4.6875 15H10.3125C11.2239 14.999 12.0976 14.6365 12.7421 13.9921C13.3865 13.3476 13.749 12.4739 13.75 11.5625V3.4375C13.749 2.52612 13.3865 1.65236 12.7421 1.00792C12.0976 0.363476 11.2239 0.000992606 10.3125 0V0ZM11.875 11.5625C11.875 11.9769 11.7104 12.3743 11.4174 12.6674C11.1243 12.9604 10.7269 13.125 10.3125 13.125H4.6875C4.2731 13.125 3.87567 12.9604 3.58265 12.6674C3.28962 12.3743 3.125 11.9769 3.125 11.5625V3.4375C3.125 3.0231 3.28962 2.62567 3.58265 2.33265C3.87567 2.03962 4.2731 1.875 4.6875 1.875H10.3125C10.7269 1.875 11.1243 2.03962 11.4174 2.33265C11.7104 2.62567 11.875 3.0231 11.875 3.4375V11.5625ZM5.9375 5.9375C5.9375 5.5231 6.10212 5.12567 6.39515 4.83265C6.68817 4.53962 7.0856 4.375 7.5 4.375C7.9144 4.375 8.31183 4.53962 8.60485 4.83265C8.89788 5.12567 9.0625 5.5231 9.0625 5.9375C9.0625 6.3519 8.89788 6.74933 8.60485 7.04235C8.31183 7.33538 7.9144 7.5 7.5 7.5C7.0856 7.5 6.68817 7.33538 6.39515 7.04235C6.10212 6.74933 5.9375 6.3519 5.9375 5.9375ZM9.9925 10.145C10.0019 10.2051 9.99807 10.2666 9.98113 10.3251C9.9642 10.3836 9.93462 10.4376 9.8945 10.4834C9.85437 10.5292 9.80468 10.5656 9.74893 10.5901C9.69318 10.6146 9.63274 10.6265 9.57188 10.625H5.40875C5.34789 10.6265 5.28744 10.6146 5.23169 10.5901C5.17595 10.5656 5.12625 10.5292 5.08613 10.4834C5.046 10.4376 5.01643 10.3836 4.99949 10.3251C4.98256 10.2666 4.97868 10.2051 4.98812 10.145C5.52625 7.47813 9.455 7.48 9.9925 10.145Z" fill="#FFC400"/>
</svg>
