<svg width="15" height="15" viewBox="0 0 15 15" fill="none" xmlns="http://www.w3.org/2000/svg">
<g clip-path="url(#clip0_44_632)">
<path d="M11.5625 0.624908H3.4375C2.52612 0.625901 1.65236 0.988384 1.00792 1.63283C0.363476 2.27727 0.000992606 3.15103 0 4.06241L0 10.9374C0.000992606 11.8488 0.363476 12.7226 1.00792 13.367C1.65236 14.0114 2.52612 14.3739 3.4375 14.3749H11.5625C12.4739 14.3739 13.3476 14.0114 13.9921 13.367C14.6365 12.7226 14.999 11.8488 15 10.9374V4.06241C14.999 3.15103 14.6365 2.27727 13.9921 1.63283C13.3476 0.988384 12.4739 0.625901 11.5625 0.624908V0.624908ZM11.5625 2.49991C11.9415 2.50117 12.3069 2.6415 12.5894 2.89428L8.52687 6.95678C8.25095 7.22032 7.88406 7.36738 7.5025 7.36738C7.12094 7.36738 6.75405 7.22032 6.47812 6.95678L2.41563 2.89428C2.69678 2.64264 3.06019 2.50239 3.4375 2.49991H11.5625ZM11.5625 12.4999H3.4375C3.0231 12.4999 2.62567 12.3353 2.33265 12.0423C2.03962 11.7492 1.875 11.3518 1.875 10.9374V5.01053L5.14938 8.28491C5.45797 8.59364 5.82438 8.83855 6.22765 9.00564C6.63092 9.17273 7.06317 9.25874 7.49969 9.25874C7.93621 9.25874 8.36845 9.17273 8.77172 9.00564C9.175 8.83855 9.5414 8.59364 9.85 8.28491L13.125 5.01053V10.9374C13.125 11.3518 12.9604 11.7492 12.6674 12.0423C12.3743 12.3353 11.9769 12.4999 11.5625 12.4999Z" fill="#FFC400"/>
</g>
<defs>
<clipPath id="clip0_44_632">
<rect width="15" height="15" fill="white"/>
</clipPath>
</defs>
</svg>
