<svg width="12" height="12" viewBox="0 0 12 12" fill="none" xmlns="http://www.w3.org/2000/svg">
<g clip-path="url(#clip0_6113_3984)">
<path d="M9.4323 11.5H3.47395C2.08237 11.4985 0.95465 10.3708 0.953125 8.97917V3.02083C0.95465 1.62924 2.08237 0.501525 3.47395 0.5H9.43228C10.8239 0.501525 11.9516 1.62924 11.9531 3.02083V8.97915C11.9516 10.3708 10.8239 11.4985 9.4323 11.5ZM3.47395 1.875C2.84113 1.875 2.32812 2.388 2.32812 3.02083V8.97915C2.32812 9.612 2.84113 10.125 3.47395 10.125H9.43228C10.0651 10.125 10.5781 9.612 10.5781 8.97917V3.02083C10.5781 2.388 10.0651 1.875 9.4323 1.875H3.47395Z" fill="#888888"/>
<path d="M5.38354 8.65237C5.09431 8.65256 4.81704 8.53704 4.61354 8.33154L3.24449 6.96479C2.97591 6.69639 2.97578 6.26109 3.24419 5.99252C3.24429 5.99241 3.2444 5.9923 3.24449 5.99219C3.51296 5.72381 3.94814 5.72381 4.21661 5.99219L5.38354 7.15865L8.68904 3.85314C8.9575 3.58476 9.39269 3.58476 9.66116 3.85314C9.92974 4.12155 9.92987 4.55684 9.66146 4.82542C9.66135 4.82553 9.66125 4.82563 9.66116 4.82572L6.15308 8.33382C5.94937 8.53846 5.67229 8.65317 5.38354 8.65237Z" fill="#888888"/>
</g>
<defs>
<clipPath id="clip0_6113_3984">
<rect width="11" height="11" fill="white" transform="translate(0.953125 0.5)"/>
</clipPath>
</defs>
</svg>
