<svg width="15" height="15" viewBox="0 0 15 15" fill="none" xmlns="http://www.w3.org/2000/svg">
<path d="M10 15.015L5 12.015V9.08625L0.625 3.77375V2.1875C0.625 1.60734 0.855468 1.05094 1.2657 0.640704C1.67594 0.230468 2.23234 0 2.8125 0L12.1875 0C12.7677 0 13.3241 0.230468 13.7343 0.640704C14.1445 1.05094 14.375 1.60734 14.375 2.1875V3.77375L10 9.08625V15.015ZM6.875 10.9525L8.125 11.7025V8.41375L12.5 3.10125V2.1875C12.5 2.10462 12.4671 2.02513 12.4085 1.96653C12.3499 1.90792 12.2704 1.875 12.1875 1.875H2.8125C2.72962 1.875 2.65013 1.90792 2.59153 1.96653C2.53292 2.02513 2.5 2.10462 2.5 2.1875V3.10125L6.875 8.41375V10.9525Z" fill="#FFC400"/>
</svg>
