<svg width="15" height="15" viewBox="0 0 15 15" fill="none" xmlns="http://www.w3.org/2000/svg">
<path d="M8.4375 11.875H3.4375C2.52612 11.874 1.65236 11.5115 1.00792 10.8671C0.363476 10.2226 0.000992606 9.34888 0 8.4375L0 3.4375C0.000992606 2.52612 0.363476 1.65236 1.00792 1.00792C1.65236 0.363476 2.52612 0.000992606 3.4375 0L8.4375 0C9.34888 0.000992606 10.2226 0.363476 10.8671 1.00792C11.5115 1.65236 11.874 2.52612 11.875 3.4375V8.4375C11.874 9.34888 11.5115 10.2226 10.8671 10.8671C10.2226 11.5115 9.34888 11.874 8.4375 11.875ZM3.4375 1.875C3.0231 1.875 2.62567 2.03962 2.33265 2.33265C2.03962 2.62567 1.875 3.0231 1.875 3.4375V8.4375C1.875 8.8519 2.03962 9.24933 2.33265 9.54235C2.62567 9.83538 3.0231 10 3.4375 10H8.4375C8.8519 10 9.24933 9.83538 9.54235 9.54235C9.83538 9.24933 10 8.8519 10 8.4375V3.4375C10 3.0231 9.83538 2.62567 9.54235 2.33265C9.24933 2.03962 8.8519 1.875 8.4375 1.875H3.4375ZM15 11.5625V4.375C15 4.12636 14.9012 3.8879 14.7254 3.71209C14.5496 3.53627 14.3111 3.4375 14.0625 3.4375C13.8139 3.4375 13.5754 3.53627 13.3996 3.71209C13.2238 3.8879 13.125 4.12636 13.125 4.375V11.5625C13.125 11.9769 12.9604 12.3743 12.6674 12.6674C12.3743 12.9604 11.9769 13.125 11.5625 13.125H4.375C4.12636 13.125 3.8879 13.2238 3.71209 13.3996C3.53627 13.5754 3.4375 13.8139 3.4375 14.0625C3.4375 14.3111 3.53627 14.5496 3.71209 14.7254C3.8879 14.9012 4.12636 15 4.375 15H11.5625C12.4739 14.999 13.3476 14.6365 13.9921 13.9921C14.6365 13.3476 14.999 12.4739 15 11.5625Z" fill="#FFC400"/>
</svg>
