<svg width="15" height="15" viewBox="0 0 15 15" fill="none" xmlns="http://www.w3.org/2000/svg">
<path d="M7.5 0C6.01664 0 4.5666 0.439867 3.33323 1.26398C2.09986 2.08809 1.13856 3.25943 0.570907 4.62987C0.00324965 6.00032 -0.145275 7.50832 0.144114 8.96318C0.433503 10.418 1.14781 11.7544 2.1967 12.8033C3.2456 13.8522 4.58197 14.5665 6.03683 14.8559C7.49168 15.1453 8.99968 14.9968 10.3701 14.4291C11.7406 13.8614 12.9119 12.9001 13.736 11.6668C14.5601 10.4334 15 8.98336 15 7.5C14.9979 5.51154 14.207 3.60513 12.8009 2.19907C11.3949 0.793018 9.48847 0.00215068 7.5 0V0ZM12.7594 5.5225L8.07188 6.43375C8.04438 6.38063 8.01375 6.32938 7.99 6.27438L6.15438 2.04438C7.49045 1.70761 8.90386 1.87644 10.123 2.51844C11.3422 3.16043 12.2811 4.23031 12.7594 5.5225ZM1.875 7.5C1.87573 6.56406 2.11015 5.64312 2.55698 4.82073C3.00381 3.99834 3.64891 3.30053 4.43375 2.79063L6.27 7.02063C6.57613 7.72707 7.05733 8.34378 7.66813 8.8125L11.3275 11.6131C10.5273 12.3619 9.52553 12.8602 8.44561 13.0465C7.3657 13.2329 6.25485 13.0992 5.24999 12.662C4.24512 12.2247 3.39015 11.503 2.79045 10.5858C2.19075 9.66853 1.87253 8.59588 1.875 7.5V7.5ZM12.4713 10.125L9.725 8.0225L13.1181 7.36313C13.1181 7.40875 13.125 7.45375 13.125 7.5C13.1253 8.41533 12.9008 9.31674 12.4713 10.125V10.125Z" fill="#FFC400"/>
</svg>
