<svg width="15" height="15" viewBox="0 0 15 15" fill="none" xmlns="http://www.w3.org/2000/svg">
<path d="M14.8369 13.9531L11.1063 10.2225C12.1229 8.97913 12.6227 7.39256 12.5024 5.79098C12.3821 4.1894 11.6508 2.69534 10.4597 1.61783C9.26873 0.540324 7.70913 -0.038187 6.10353 0.00195787C4.49794 0.0421028 2.96919 0.697832 1.83351 1.83351C0.697832 2.96919 0.0421028 4.49794 0.00195787 6.10353C-0.038187 7.70913 0.540324 9.26873 1.61783 10.4597C2.69534 11.6508 4.1894 12.3821 5.79098 12.5024C7.39256 12.6227 8.97913 12.1229 10.2225 11.1063L13.9531 14.8369C14.071 14.9507 14.2289 15.0137 14.3928 15.0123C14.5566 15.0109 14.7134 14.9451 14.8293 14.8293C14.9451 14.7134 15.0109 14.5566 15.0123 14.3928C15.0137 14.2289 14.9507 14.071 14.8369 13.9531ZM6.27001 11.27C5.2811 11.27 4.3144 10.9768 3.49215 10.4274C2.66991 9.87795 2.02905 9.09705 1.65061 8.18342C1.27217 7.26979 1.17315 6.26446 1.36608 5.29455C1.559 4.32465 2.03521 3.43373 2.73447 2.73447C3.43373 2.03521 4.32465 1.559 5.29455 1.36608C6.26446 1.17315 7.26979 1.27217 8.18342 1.65061C9.09705 2.02905 9.87795 2.66991 10.4274 3.49215C10.9768 4.3144 11.27 5.2811 11.27 6.27001C11.2685 7.59563 10.7413 8.86654 9.80389 9.80389C8.86654 10.7413 7.59563 11.2685 6.27001 11.27Z" fill="#888888"/>
</svg>
