<svg width="15" height="15" viewBox="0 0 15 15" fill="none" xmlns="http://www.w3.org/2000/svg">
<g clip-path="url(#clip0_140_1227)">
<path d="M6.6875 1.6408C6.51176 1.26714 6.23331 0.951205 5.88469 0.729914C5.53607 0.508624 5.13167 0.391113 4.71875 0.391113C4.30583 0.391113 3.90143 0.508624 3.55281 0.729914C3.20419 0.951205 2.92574 1.26714 2.75 1.6408H0.9375C0.68886 1.6408 0.450403 1.73957 0.274587 1.91538C0.098772 2.0912 0 2.32966 0 2.5783H0C0 2.82694 0.098772 3.06539 0.274587 3.24121C0.450403 3.41703 0.68886 3.5158 0.9375 3.5158H2.74688C2.92261 3.88946 3.20106 4.20539 3.54968 4.42668C3.8983 4.64797 4.3027 4.76548 4.71562 4.76548C5.12855 4.76548 5.53295 4.64797 5.88157 4.42668C6.23019 4.20539 6.50864 3.88946 6.68437 3.5158H14.0625C14.3111 3.5158 14.5496 3.41703 14.7254 3.24121C14.9012 3.06539 15 2.82694 15 2.5783C15 2.32966 14.9012 2.0912 14.7254 1.91538C14.5496 1.73957 14.3111 1.6408 14.0625 1.6408H6.6875Z" fill="#FFC400"/>
<path d="M10.2844 5.31201C9.87149 5.31275 9.46728 5.43059 9.11869 5.65185C8.77009 5.87311 8.49141 6.18871 8.315 6.56201H0.9375C0.68886 6.56201 0.450403 6.66078 0.274587 6.8366C0.098772 7.01241 0 7.25087 0 7.49951H0C0 7.74815 0.098772 7.98661 0.274587 8.16243C0.450403 8.33824 0.68886 8.43701 0.9375 8.43701H8.3125C8.48824 8.81067 8.76669 9.1266 9.11531 9.34789C9.46393 9.56919 9.86833 9.6867 10.2812 9.6867C10.6942 9.6867 11.0986 9.56919 11.4472 9.34789C11.7958 9.1266 12.0743 8.81067 12.25 8.43701H14.0625C14.3111 8.43701 14.5496 8.33824 14.7254 8.16243C14.9012 7.98661 15 7.74815 15 7.49951C15 7.25087 14.9012 7.01241 14.7254 6.8366C14.5496 6.66078 14.3111 6.56201 14.0625 6.56201H12.2531C12.0768 6.18881 11.7982 5.87327 11.4497 5.65201C11.1012 5.43076 10.6972 5.31286 10.2844 5.31201Z" fill="#FFC400"/>
<path d="M4.71562 10.2339C4.30285 10.2347 3.89877 10.3526 3.5503 10.5739C3.20182 10.7951 2.92324 11.1107 2.74688 11.4839H0.9375C0.68886 11.4839 0.450403 11.5827 0.274587 11.7585C0.098772 11.9343 0 12.1727 0 12.4214H0C0 12.67 0.098772 12.9085 0.274587 13.0843C0.450403 13.2601 0.68886 13.3589 0.9375 13.3589H2.74688C2.92261 13.7325 3.20106 14.0485 3.54968 14.2698C3.8983 14.4911 4.3027 14.6086 4.71562 14.6086C5.12855 14.6086 5.53295 14.4911 5.88157 14.2698C6.23019 14.0485 6.50864 13.7325 6.68437 13.3589H14.0625C14.3111 13.3589 14.5496 13.2601 14.7254 13.0843C14.9012 12.9085 15 12.67 15 12.4214C15 12.1727 14.9012 11.9343 14.7254 11.7585C14.5496 11.5827 14.3111 11.4839 14.0625 11.4839H6.6875C6.51091 11.1102 6.23184 10.7943 5.88276 10.5731C5.53368 10.3518 5.12894 10.2341 4.71562 10.2339Z" fill="#FFC400"/>
<path d="M6.6875 1.6408C6.51176 1.26714 6.23331 0.951205 5.88469 0.729914C5.53607 0.508624 5.13167 0.391113 4.71875 0.391113C4.30583 0.391113 3.90143 0.508624 3.55281 0.729914C3.20419 0.951205 2.92574 1.26714 2.75 1.6408H0.9375C0.68886 1.6408 0.450403 1.73957 0.274587 1.91538C0.098772 2.0912 0 2.32966 0 2.5783H0C0 2.82694 0.098772 3.06539 0.274587 3.24121C0.450403 3.41703 0.68886 3.5158 0.9375 3.5158H2.74688C2.92261 3.88946 3.20106 4.20539 3.54968 4.42668C3.8983 4.64797 4.3027 4.76548 4.71562 4.76548C5.12855 4.76548 5.53295 4.64797 5.88157 4.42668C6.23019 4.20539 6.50864 3.88946 6.68437 3.5158H14.0625C14.3111 3.5158 14.5496 3.41703 14.7254 3.24121C14.9012 3.06539 15 2.82694 15 2.5783C15 2.32966 14.9012 2.0912 14.7254 1.91538C14.5496 1.73957 14.3111 1.6408 14.0625 1.6408H6.6875Z" fill="#FFC400"/>
<path d="M10.2844 5.31201C9.87149 5.31275 9.46728 5.43059 9.11869 5.65185C8.77009 5.87311 8.49141 6.18871 8.315 6.56201H0.9375C0.68886 6.56201 0.450403 6.66078 0.274587 6.8366C0.098772 7.01241 0 7.25087 0 7.49951H0C0 7.74815 0.098772 7.98661 0.274587 8.16243C0.450403 8.33824 0.68886 8.43701 0.9375 8.43701H8.3125C8.48824 8.81067 8.76669 9.1266 9.11531 9.34789C9.46393 9.56919 9.86833 9.6867 10.2812 9.6867C10.6942 9.6867 11.0986 9.56919 11.4472 9.34789C11.7958 9.1266 12.0743 8.81067 12.25 8.43701H14.0625C14.3111 8.43701 14.5496 8.33824 14.7254 8.16243C14.9012 7.98661 15 7.74815 15 7.49951C15 7.25087 14.9012 7.01241 14.7254 6.8366C14.5496 6.66078 14.3111 6.56201 14.0625 6.56201H12.2531C12.0768 6.18881 11.7982 5.87327 11.4497 5.65201C11.1012 5.43076 10.6972 5.31286 10.2844 5.31201Z" fill="#FFC400"/>
<path d="M4.71562 10.2339C4.30285 10.2347 3.89877 10.3526 3.5503 10.5739C3.20182 10.7951 2.92324 11.1107 2.74688 11.4839H0.9375C0.68886 11.4839 0.450403 11.5827 0.274587 11.7585C0.098772 11.9343 0 12.1727 0 12.4214H0C0 12.67 0.098772 12.9085 0.274587 13.0843C0.450403 13.2601 0.68886 13.3589 0.9375 13.3589H2.74688C2.92261 13.7325 3.20106 14.0485 3.54968 14.2698C3.8983 14.4911 4.3027 14.6086 4.71562 14.6086C5.12855 14.6086 5.53295 14.4911 5.88157 14.2698C6.23019 14.0485 6.50864 13.7325 6.68437 13.3589H14.0625C14.3111 13.3589 14.5496 13.2601 14.7254 13.0843C14.9012 12.9085 15 12.67 15 12.4214C15 12.1727 14.9012 11.9343 14.7254 11.7585C14.5496 11.5827 14.3111 11.4839 14.0625 11.4839H6.6875C6.51091 11.1102 6.23184 10.7943 5.88276 10.5731C5.53368 10.3518 5.12894 10.2341 4.71562 10.2339Z" fill="#FFC400"/>
</g>
<defs>
<clipPath id="clip0_140_1227">
<rect width="15" height="15" fill="white"/>
</clipPath>
</defs>
</svg>
