<svg width="15" height="15" viewBox="0 0 15 15" fill="none" xmlns="http://www.w3.org/2000/svg">
<g clip-path="url(#clip0_161_9278)">
<path d="M14.0625 9.68726C13.8139 9.68726 13.5754 9.78603 13.3996 9.96184C13.2238 10.1377 13.125 10.3761 13.125 10.6248V11.5622C13.125 11.9766 12.9604 12.3741 12.6674 12.6671C12.3743 12.9601 11.9769 13.1247 11.5625 13.1247H10.625C10.3764 13.1247 10.1379 13.2235 9.96209 13.3993C9.78627 13.5751 9.6875 13.8136 9.6875 14.0622C9.6875 14.3109 9.78627 14.5493 9.96209 14.7252C10.1379 14.901 10.3764 14.9997 10.625 14.9997H11.5625C12.4739 14.9987 13.3476 14.6363 13.9921 13.9918C14.6365 13.3474 14.999 12.4736 15 11.5622V10.6248C15 10.3761 14.9012 10.1377 14.7254 9.96184C14.5496 9.78603 14.3111 9.68726 14.0625 9.68726Z" fill="#FFC400"/>
<path d="M0.9375 5.3125C1.18614 5.3125 1.4246 5.21373 1.60041 5.03791C1.77623 4.8621 1.875 4.62364 1.875 4.375V3.4375C1.875 3.0231 2.03962 2.62567 2.33265 2.33265C2.62567 2.03962 3.0231 1.875 3.4375 1.875H4.375C4.62364 1.875 4.8621 1.77623 5.03791 1.60041C5.21373 1.4246 5.3125 1.18614 5.3125 0.9375C5.3125 0.68886 5.21373 0.450403 5.03791 0.274587C4.8621 0.098772 4.62364 0 4.375 0L3.4375 0C2.52612 0.000992606 1.65236 0.363476 1.00792 1.00792C0.363476 1.65236 0.000992606 2.52612 0 3.4375L0 4.375C0 4.62364 0.098772 4.8621 0.274587 5.03791C0.450403 5.21373 0.68886 5.3125 0.9375 5.3125Z" fill="#FFC400"/>
<path d="M4.375 13.1247H3.4375C3.0231 13.1247 2.62567 12.9601 2.33265 12.6671C2.03962 12.3741 1.875 11.9766 1.875 11.5622V10.6248C1.875 10.3761 1.77623 10.1377 1.60041 9.96184C1.4246 9.78603 1.18614 9.68726 0.9375 9.68726C0.68886 9.68726 0.450403 9.78603 0.274587 9.96184C0.098772 10.1377 0 10.3761 0 10.6248L0 11.5622C0.000992606 12.4736 0.363476 13.3474 1.00792 13.9918C1.65236 14.6363 2.52612 14.9987 3.4375 14.9997H4.375C4.62364 14.9997 4.8621 14.901 5.03791 14.7252C5.21373 14.5493 5.3125 14.3109 5.3125 14.0622C5.3125 13.8136 5.21373 13.5751 5.03791 13.3993C4.8621 13.2235 4.62364 13.1247 4.375 13.1247Z" fill="#FFC400"/>
<path d="M11.5625 0H10.625C10.3764 0 10.1379 0.098772 9.96209 0.274587C9.78627 0.450403 9.6875 0.68886 9.6875 0.9375C9.6875 1.18614 9.78627 1.4246 9.96209 1.60041C10.1379 1.77623 10.3764 1.875 10.625 1.875H11.5625C11.9769 1.875 12.3743 2.03962 12.6674 2.33265C12.9604 2.62567 13.125 3.0231 13.125 3.4375V4.375C13.125 4.62364 13.2238 4.8621 13.3996 5.03791C13.5754 5.21373 13.8139 5.3125 14.0625 5.3125C14.3111 5.3125 14.5496 5.21373 14.7254 5.03791C14.9012 4.8621 15 4.62364 15 4.375V3.4375C14.999 2.52612 14.6365 1.65236 13.9921 1.00792C13.3476 0.363476 12.4739 0.000992606 11.5625 0V0Z" fill="#FFC400"/>
<path d="M7.5 6.87524C8.70812 6.87524 9.6875 5.89587 9.6875 4.68774C9.6875 3.47962 8.70812 2.50024 7.5 2.50024C6.29188 2.50024 5.3125 3.47962 5.3125 4.68774C5.3125 5.89587 6.29188 6.87524 7.5 6.87524Z" fill="#FFC400"/>
<path d="M3.8188 11.1549C3.80432 11.2441 3.80952 11.3355 3.83403 11.4225C3.85854 11.5095 3.90178 11.5902 3.96072 11.6588C4.01966 11.7273 4.09287 11.7822 4.17524 11.8195C4.2576 11.8569 4.34713 11.8757 4.43755 11.8748H10.5625C10.6531 11.8759 10.7427 11.8572 10.8253 11.8199C10.9078 11.7827 10.9811 11.7278 11.0402 11.6592C11.0993 11.5906 11.1427 11.5099 11.1672 11.4228C11.1918 11.3357 11.197 11.2442 11.1825 11.1549C11.0166 10.3003 10.5585 9.53007 9.88689 8.97628C9.21523 8.42249 8.37182 8.11963 7.5013 8.11963C6.63077 8.11963 5.78737 8.42249 5.11571 8.97628C4.44405 9.53007 3.98598 10.3003 3.82005 11.1549H3.8188Z" fill="#FFC400"/>
</g>
<defs>
<clipPath id="clip0_161_9278">
<rect width="15" height="15" fill="white"/>
</clipPath>
</defs>
</svg>
