<svg width="15" height="15" viewBox="0 0 15 15" fill="none" xmlns="http://www.w3.org/2000/svg">
<path d="M11.5625 15H3.43749C1.53987 14.9979 0.00208008 13.4601 0 11.5625V3.43749C0.00208008 1.53987 1.53987 0.00208008 3.43749 0H11.5625C13.4601 0.00208008 14.9979 1.53987 15 3.43749V11.5625C14.9979 13.4601 13.4601 14.9979 11.5625 15ZM3.43749 1.875C2.57455 1.875 1.875 2.57455 1.875 3.43749V11.5625C1.875 12.4254 2.57455 13.125 3.43749 13.125H11.5625C12.4254 13.125 13.125 12.4254 13.125 11.5625V3.43749C13.125 2.57455 12.4254 1.875 11.5625 1.875H3.43749Z" fill="#FFC400"/>
<path d="M6.04178 11.1167C5.64739 11.117 5.26928 10.9595 4.99178 10.6792L3.1249 8.81549C2.75865 8.44949 2.75848 7.8559 3.12448 7.48966C3.12463 7.48952 3.12478 7.48937 3.1249 7.48922C3.49099 7.12325 4.08443 7.12325 4.45052 7.48922L6.04178 9.07984L10.5493 4.57233C10.9154 4.20636 11.5088 4.20636 11.8749 4.57233C12.2411 4.93834 12.2413 5.53193 11.8753 5.89817C11.8752 5.89831 11.875 5.89846 11.8749 5.89858L7.09116 10.6824C6.81337 10.9614 6.43553 11.1178 6.04178 11.1167Z" fill="#FFC400"/>
</svg>
